<?xml version="1.0" encoding="UTF-8" standalone="no"?>
<!-- Created with Inkscape (http://www.inkscape.org/) -->

<svg
   width="78.858002mm"
   height="40.728489mm"
   viewBox="0 0 78.858002 40.728489"
   version="1.1"
   id="svg5"
   inkscape:version="1.1.2 (b8e25be833, 2022-02-05)"
   xmlns:inkscape="http://www.inkscape.org/namespaces/inkscape"
   xmlns:sodipodi="http://sodipodi.sourceforge.net/DTD/sodipodi-0.dtd"
   xmlns:xlink="http://www.w3.org/1999/xlink"
   xmlns="http://www.w3.org/2000/svg"
   xmlns:svg="http://www.w3.org/2000/svg">
  <sodipodi:namedview
     id="namedview7"
     pagecolor="#ffffff"
     bordercolor="#666666"
     borderopacity="1.0"
     inkscape:pageshadow="2"
     inkscape:pageopacity="0.0"
     inkscape:pagecheckerboard="0"
     inkscape:document-units="mm"
     showgrid="false"
     inkscape:zoom="0.74029882"
     inkscape:cx="-200.59467"
     inkscape:cy="222.88297"
     inkscape:window-width="1920"
     inkscape:window-height="1017"
     inkscape:window-x="-8"
     inkscape:window-y="-8"
     inkscape:window-maximized="1"
     inkscape:current-layer="layer1"
     fit-margin-top="0"
     fit-margin-left="0"
     fit-margin-right="0"
     fit-margin-bottom="0" />
  <defs
     id="defs2">
    <linearGradient
       inkscape:collect="always"
       id="linearGradient30542">
      <stop
         style="stop-color:#000000;stop-opacity:1;"
         offset="0"
         id="stop30538" />
      <stop
         style="stop-color:#000000;stop-opacity:0;"
         offset="1"
         id="stop30540" />
    </linearGradient>
    <linearGradient
       inkscape:collect="always"
       id="linearGradient27736">
      <stop
         style="stop-color:#00adb5;stop-opacity:1;"
         offset="0"
         id="stop27732" />
      <stop
         style="stop-color:#eeeeee;stop-opacity:0"
         offset="1"
         id="stop27734" />
    </linearGradient>
    <linearGradient
       id="linearGradient27664"
       inkscape:swatch="gradient">
      <stop
         style="stop-color:#00adb5;stop-opacity:1;"
         offset="0"
         id="stop27660" />
      <stop
         style="stop-color:#00adb5;stop-opacity:0;"
         offset="1"
         id="stop27662" />
    </linearGradient>
    <linearGradient
       id="linearGradient4214"
       inkscape:swatch="gradient">
      <stop
         style="stop-color:#0044aa;stop-opacity:1;"
         offset="0"
         id="stop4210" />
      <stop
         style="stop-color:#0044aa;stop-opacity:0;"
         offset="1"
         id="stop4212" />
    </linearGradient>
    <radialGradient
       inkscape:collect="always"
       xlink:href="#linearGradient27664"
       id="radialGradient27668"
       cx="94.706917"
       cy="141.68056"
       fx="94.706917"
       fy="141.68056"
       r="39.401604"
       gradientTransform="matrix(1,0,0,0.19818769,0,113.60121)"
       gradientUnits="userSpaceOnUse" />
    <radialGradient
       inkscape:collect="always"
       xlink:href="#linearGradient27736"
       id="radialGradient28641"
       gradientUnits="userSpaceOnUse"
       gradientTransform="matrix(2.3213291,0.015715,-0.00271503,0.40104878,-123.09369,95.021879)"
       cx="93.890526"
       cy="161.11057"
       fx="93.890526"
       fy="161.11057"
       r="38.640007" />
    <radialGradient
       inkscape:collect="always"
       xlink:href="#linearGradient30542"
       id="radialGradient30546"
       cx="95.994202"
       cy="142.44926"
       fx="95.994202"
       fy="142.44926"
       r="39.401604"
       gradientTransform="matrix(1,0,0,0.1981877,0,114.21757)"
       gradientUnits="userSpaceOnUse" />
  </defs>
  <g
     inkscape:label="Layer 1"
     inkscape:groupmode="layer"
     id="layer1"
     transform="translate(-55.250518,-133.87164)">
    <path
       style="fill:url(#radialGradient30546);fill-opacity:1;stroke:#eeeeee;stroke-width:0.264583;stroke-opacity:1;opacity:0.38414634"
       d="m 91.951012,149.52316 c -0.99554,-1.09301 -1.19732,-1.84286 -1.48814,-5.53031 -0.15893,-2.01518 -0.367,-3.66396 -0.46236,-3.66396 -0.36679,0 -1.65592,2.17486 -2.23003,3.76223 -0.35426,0.97952 -0.77628,1.69685 -1.02795,1.74728 -0.37558,0.0752 -0.42695,-0.33329 -0.42695,-3.39549 0,-2.65033 -0.0782,-3.45496 -0.32775,-3.37178 -0.39832,0.13277 -0.79784,1.27159 -1.3738,3.91602 -0.45799,2.10274 -1.30311,3.82825 -1.74211,3.55693 -0.46014,-0.28438 -0.28055,-1.56105 0.53324,-3.79091 1.05558,-2.89236 1.11111,-5.30597 0.14432,-6.27276 -0.78421,-0.78421 -0.84064,-0.78751 -1.94564,-0.11381 -0.89324,0.5446 -1.88625,2.29009 -1.89703,3.33458 -0.0117,1.13316 -1.35305,1.52614 -1.95366,0.57238 -0.66155,-1.05053 1.73825,-4.38126 3.69517,-5.12862 1.10545,-0.42217 1.25955,-0.42431 2.08866,-0.0289 0.87825,0.4188 1.4501,1.56758 1.45421,2.9213 0.001,0.43129 0.0924,0.41001 0.80239,-0.18739 1.40124,-1.17906 1.79159,-0.64536 1.90992,2.61127 l 0.0673,1.85208 0.88888,-1.63888 c 1.1179,-2.06112 1.75403,-2.67663 2.36775,-2.29101 0.36329,0.22826 0.47722,0.87364 0.60527,3.42846 0.29218,5.82988 1.00623,7.51289 3.18749,7.51289 1.04294,0 1.08554,0.0272 0.60795,0.38846 -0.83007,0.62783 -2.83184,0.51843 -3.47712,-0.19003 z m -30.021587,-0.57104 c -1.227438,-0.36531 -1.561055,-0.68573 -0.713982,-0.68573 1.181665,0 1.287639,-0.37377 1.287639,-4.54152 0,-3.61817 -0.03854,-3.92715 -0.522124,-4.18596 -0.635013,-0.33985 -2.148849,-0.39918 -3.589895,-0.14069 -0.848456,0.15218 -1.147242,0.0979 -1.446627,-0.26284 -0.333188,-0.40147 -0.308188,-0.51061 0.213756,-0.93326 0.81747,-0.66195 3.878167,-1.31281 6.173512,-1.31281 3.710965,0 6.511237,1.3405 7.132591,3.4144 0.373466,1.24651 -0.244251,3.67923 -1.154219,4.5456 -0.914486,0.87066 -4.217828,3.05412 -4.954911,3.27512 -0.363802,0.10907 -0.840052,0.40492 -1.058333,0.65743 -0.337022,0.38987 -0.543241,0.41555 -1.367407,0.17026 z m 4.968871,-3.86842 c 2.151843,-1.8319 2.748536,-2.68386 2.748536,-3.9244 0,-1.42384 -2.459359,-2.83891 -4.573814,-2.63168 -1.036332,0.10156 -1.151338,0.54782 -1.4096,5.46963 l -0.185548,3.53607 0.706004,-0.36992 c 0.388303,-0.20345 1.609792,-1.13932 2.714422,-2.0797 z m 43.758944,3.71186 c -0.70794,-0.70794 -0.67873,-2.07794 0.0683,-3.20202 0.71433,-1.0749 2.80569,-2.23932 3.22683,-1.79662 0.19527,0.20527 0.12194,0.38027 -0.24902,0.59427 -1.72265,0.9938 -3.02911,2.99826 -2.26285,3.47183 0.59998,0.37081 5.71228,-2.75107 6.33882,-3.87086 0.75279,-1.34545 -0.56096,-1.89329 -5.33968,-2.22668 -1.94039,-0.13538 -2.36428,-0.247 -2.59829,-0.68425 -0.23416,-0.43753 -0.13189,-0.66181 0.62909,-1.3795 1.45843,-1.37548 4.50902,-2.85904 5.67957,-2.76209 0.8529,0.0706 1.0009,0.18034 1.07181,0.79444 0.0649,0.56232 -0.0814,0.79708 -0.69406,1.11393 -0.84265,0.43574 -1.108,0.33629 -1.108,-0.4153 0,-0.79241 -1.09235,-0.58328 -2.64878,0.50712 -0.77893,0.5457 -1.39737,1.11125 -1.3743,1.25677 0.0231,0.14552 1.08653,0.35157 2.36324,0.45789 1.27672,0.10632 2.82326,0.38251 3.43677,0.61376 0.61351,0.23124 1.44695,0.38238 1.85209,0.33586 0.6832,-0.0785 0.74256,-0.18051 0.81863,-1.40751 0.095,-1.53283 0.37646,-1.95304 0.97519,-1.45613 0.31583,0.26211 0.37755,0.61809 0.25214,1.45433 -0.16604,1.10726 -0.16604,1.10726 0.9821,1.37228 1.14109,0.2634 1.11357,0.31235 -0.43937,0.78146 -0.74387,0.2247 -0.79866,0.33238 -0.87184,1.71359 -0.0971,1.83336 0.35917,2.39769 1.39167,1.72117 0.52097,-0.34135 0.6429,-0.62388 0.59664,-1.38249 -0.11195,-1.83606 2.20184,-2.64146 2.93921,-1.0231 0.75397,1.65477 -0.0578,2.85292 -1.85115,2.73214 -0.59483,-0.0401 -1.17665,0.14436 -1.71786,0.54449 -1.54308,1.14085 -2.56754,0.15833 -2.31936,-2.2244 0.14279,-1.37098 -0.14092,-2.18578 -0.65127,-1.87037 -0.16179,0.1 -0.29416,0.4275 -0.29416,0.72778 0,0.61882 -2.93397,3.9115 -3.85028,4.32104 -0.32984,0.14742 -0.81886,0.45798 -1.0867,0.69014 -0.45409,0.39359 -2.00191,1.0262 -2.51084,1.0262 -0.1238,0 -0.46323,-0.23813 -0.75427,-0.52917 z m 14.29043,-3.97422 c 0.28876,-0.53956 0.15994,-1.05286 -0.26423,-1.05286 -0.36454,0 -1.06161,0.79419 -1.06161,1.20952 0,0.57104 0.9996,0.45293 1.32584,-0.15666 z m -53.376908,1.92774 c -0.201551,-0.52524 -0.231293,-2.23794 -0.13791,-7.94154 0.0558,-3.40651 0.12875,-4.0349 0.46861,-4.0349 0.8094,0 1.03472,1.17972 0.70226,3.6768 -0.17108,1.28497 -0.31106,2.79583 -0.31106,3.35747 v 1.02116 l 0.80282,-0.87896 c 0.7483,-0.81929 0.84262,-0.85264 1.38906,-0.49122 0.47194,0.31216 0.60188,0.68368 0.66641,1.90553 0.0727,1.37657 0.13003,1.50474 0.61621,1.3776 0.39948,-0.10447 0.49702,-0.0385 0.38286,0.25903 -0.0842,0.21956 -0.15319,0.50434 -0.15319,0.63284 0,0.1285 -0.24574,0.36515 -0.54608,0.52589 -0.90137,0.4824 -1.306,-0.10427 -1.306,-1.89353 0,-0.91068 -0.11524,-1.55511 -0.27809,-1.55511 -0.40401,0 -1.04483,1.68541 -1.04483,2.74799 0,0.5021 -0.0723,1.10123 -0.1606,1.33142 -0.21397,0.55758 -0.87032,0.53323 -1.09047,-0.0405 z m 25.85732,-0.20248 c -0.48356,-0.58265 0.12461,-1.23583 0.95631,-1.02709 0.4451,0.11171 0.63119,0.0467 0.63119,-0.22048 0,-0.21787 -0.42166,-0.48306 -0.99219,-0.62399 -1.34983,-0.33345 -1.38471,-1.28242 -0.0795,-2.16202 1.05497,-0.71094 1.73312,-0.68416 1.73312,0.0685 0,0.40157 -0.20663,0.54538 -0.87596,0.60965 -1.06958,0.10269 -0.99273,0.63044 0.12509,0.85905 1.674088,0.34239 1.886038,1.12474 0.59827,2.20832 -0.92063,0.77466 -1.61352,0.86989 -2.09636,0.2881 z m 4.129208,0.0533 c -0.39589,-0.28948 -0.43249,-0.6116 -0.27143,-2.38893 0.15282,-1.68642 0.26235,-2.03957 0.61158,-1.97192 0.32485,0.0629 0.43328,0.42987 0.45863,1.55205 0.0183,0.80829 0.11025,1.71237 0.20441,2.00905 0.23788,0.74947 -0.38877,1.24903 -1.00319,0.79975 z m 30.10373,-0.30054 c -0.87307,-0.38001 -1.3858,-1.41612 -1.21859,-2.46251 0.13009,-0.81404 1.55751,-2.18506 2.27496,-2.18506 1.79927,0 1.46496,2.32603 -0.43046,2.99498 -0.65065,0.22963 -0.58556,0.97377 0.0852,0.97377 0.30151,0 1.07541,-0.30897 1.71979,-0.6866 0.64438,-0.37763 1.17159,-0.58271 1.17159,-0.45575 0,0.52183 -0.91937,1.48642 -1.74587,1.83176 -1.03695,0.43326 -0.83419,0.43442 -1.8566,-0.0106 z m -38.413358,-0.20255 c -0.4643,-0.46431 -0.42083,-3.12208 0.0511,-3.12208 0.42659,0 0.68977,0.56348 0.68977,1.47684 0,0.35191 0.10632,0.63982 0.23627,0.63982 0.34867,0 0.55748,-0.70181 0.55748,-1.87372 0,-0.70973 0.11624,-1.03669 0.36856,-1.03669 0.46023,0 0.68977,0.57536 0.68977,1.72898 0,0.49057 0.1384,1.19571 0.30756,1.56698 0.39263,0.86171 0.20437,1.03872 -0.67742,0.63695 -0.53761,-0.24495 -0.77577,-0.24728 -1.01315,-0.01 -0.39666,0.39666 -0.80851,0.39422 -1.20991,-0.007 z m 10.794998,-0.21167 c -0.77331,-0.7733 -0.72774,-2.63162 0.0832,-3.39346 0.68672,-0.64514 1.24478,-0.72898 1.71597,-0.25779 0.48397,0.48398 0.37902,1.00542 -0.20236,1.00542 -0.75924,0 -1.1993,0.95579 -0.82167,1.78461 0.25733,0.56477 0.42069,0.63529 1.13898,0.49163 0.46121,-0.0922 1.09009,-0.40401 1.39751,-0.69281 0.66304,-0.6229 1.23335,-0.69102 1.01469,-0.12121 -0.22333,0.58199 -2.26521,1.71278 -3.0928,1.71278 -0.38739,0 -0.94248,-0.23812 -1.23352,-0.52917 z m 23.41149,-0.19843 c -0.0806,-0.40019 -0.26144,-1.09325 -0.40192,-1.54014 -0.36742,-1.16889 -0.32319,-1.51905 0.16805,-1.33055 0.26923,0.10332 0.61349,-0.0791 0.94524,-0.50086 0.53459,-0.67961 1.37877,-0.87648 1.67854,-0.39144 0.0924,0.14955 -0.1982,0.61403 -0.64584,1.03219 -0.70298,0.65668 -0.81389,0.94414 -0.81389,2.10935 0,1.01505 -0.097,1.34905 -0.39184,1.34905 -0.21555,0 -0.45775,-0.32735 -0.53834,-0.7276 z m -26.06663,-4.97215 c -0.44987,-0.54207 0.0277,-1.02862 0.77642,-0.79099 0.70576,0.22399 0.75376,1.19907 0.059,1.19907 -0.27322,0 -0.64917,-0.18364 -0.83545,-0.40808 z"
       id="path459-5"
       inkscape:export-filename="C:\Users\jaine\OneDrive\Escritorio\Joel\proyectos_git\grupo_2_instrumentosMusicalesDH\public\images\logo.svg"
       inkscape:export-xdpi="193.25876"
       inkscape:export-ydpi="193.25876" />
    <path
       style="opacity:0.20121951;mix-blend-mode:normal;fill:#000000;fill-opacity:1;stroke:#eeeeee;stroke-width:0.110959;stroke-miterlimit:4;stroke-dasharray:none;stroke-opacity:1"
       d="m 58.72445,152.02915 c 0.645638,-0.45907 1.991203,-1.04526 2.982115,-1.29916 2.139131,-0.5481 4.016498,-0.20469 8.843188,1.6176 2.173098,0.82045 3.240103,1.05417 4.454372,0.9757 1.679202,-0.10853 2.485812,-0.53673 4.593001,-2.43833 0.77887,-0.70287 1.709738,-1.46538 2.068599,-1.69445 2.410105,-1.53851 5.559933,-1.46199 7.752758,0.18832 2.130175,1.60316 2.512445,3.42205 1.214995,5.7811 -0.79587,1.44709 -0.95311,1.68569 -1.03384,1.56878 -0.08286,-0.11991 -0.0318,-0.46866 0.27152,-1.85643 0.41769,-1.91097 0.20782,-2.94101 -0.812305,-3.98681 -1.023683,-1.04945 -2.598448,-1.59308 -4.053599,-1.39935 -1.350016,0.17975 -2.285551,0.70868 -4.14743,2.34487 -1.94097,1.70571 -3.008369,2.35811 -4.516922,2.76075 -0.40287,0.10754 -0.73037,0.22052 -0.727779,0.25107 0.0026,0.0306 0.299296,0.10017 0.659344,0.15463 0.360048,0.0544 1.147494,0.20716 1.74988,0.33927 2.17332,0.47666 3.33521,0.36213 4.617092,-0.45511 0.378688,-0.24142 0.947561,-0.60198 1.264163,-0.80124 1.146471,-0.72157 2.403937,-0.74798 3.305568,-0.0694 0.69931,0.5263 0.969323,1.22534 0.765937,1.98295 -0.09872,0.36762 -0.941097,1.4432 -1.060134,1.35357 -0.04428,-0.0333 0.01338,-0.36978 0.127945,-0.74772 0.255392,-0.84225 0.164924,-1.25868 -0.363758,-1.67435 -0.733765,-0.57692 -1.545525,-0.44618 -2.73727,0.44081 -1.95183,1.45272 -3.655187,1.75611 -6.496474,1.15708 -1.449783,-0.30567 -3.155875,-0.35881 -3.713122,-0.11567 -0.538848,0.23511 -0.960613,0.70071 -1.245674,1.37512 -0.135315,0.32013 -0.292192,0.58504 -0.348615,0.58868 -0.05642,0.004 -0.128847,-0.22444 -0.160941,-0.50688 -0.133993,-1.17918 0.652261,-2.3848 1.782945,-2.7339 0.308622,-0.0953 0.578438,-0.19078 0.599593,-0.21219 0.02116,-0.0215 -0.167693,-0.0623 -0.419663,-0.0909 -1.065569,-0.12094 -2.49852,-0.50372 -3.938219,-1.05202 -4.707289,-1.79272 -6.209386,-2.05811 -8.049514,-1.42216 -1.246617,0.43083 -1.962851,0.87297 -2.593417,1.60094 -0.466251,0.53828 -0.576899,0.76859 -0.897113,1.86732 -0.452666,1.55321 -0.62072,3.1142 -0.544879,5.06119 0.09206,2.36356 0.451123,4.15852 1.329512,6.6464 0.992691,2.81163 2.350986,4.6419 4.237702,5.71022 1.983507,1.12313 3.838914,1.25697 5.582695,0.40269 0.575769,-0.28206 0.817084,-0.49527 2.737808,-2.41887 1.9696,-1.97255 2.149151,-2.12996 2.764953,-2.42403 0.924687,-0.44158 1.711225,-0.65813 2.722605,-0.74956 1.886362,-0.17052 3.54791,0.14509 7.315007,1.38953 2.801028,0.9253 4.113391,1.2077 5.266279,1.13319 1.84648,-0.11933 3.12416,-1.18754 2.97823,-2.48996 -0.11903,-1.06226 -0.89369,-1.48748 -3.06574,-1.68281 -1.581057,-0.14217 -2.168122,-0.31252 -2.852769,-0.82778 -0.711467,-0.53546 -0.939627,-1.22862 -0.690645,-2.09822 0.106954,-0.37356 0.517249,-1.04286 0.600758,-0.98001 0.02872,0.0216 0.0031,0.3381 -0.05683,0.7033 -0.132497,0.80671 0.0477,1.26854 0.613861,1.57358 0.530311,0.28569 0.900239,0.35629 2.295975,0.43816 2.68624,0.15756 3.97124,0.81797 4.39907,2.26085 0.58911,1.98676 -1.4069,3.91215 -4.21885,4.06959 -1.329731,0.0745 -2.64115,-0.199 -5.679988,-1.18441 -4.221202,-1.36881 -5.937762,-1.55813 -7.847262,-0.86548 -1.014647,0.36806 -1.522606,0.76925 -2.765071,2.18386 -1.689928,1.92407 -2.737598,2.93583 -3.460112,3.34151 -2.046747,1.1492 -4.141021,1.24106 -6.651044,0.29176 -0.739711,-0.27978 -1.039008,-0.46184 -2.203354,-1.3404 -1.176692,-0.88787 -1.398718,-1.09535 -1.752733,-1.63793 -0.889542,-1.36336 -1.402157,-2.69045 -2.148948,-5.56331 -0.202248,-0.77805 -0.387629,-1.42961 -0.41196,-1.44792 -0.02434,-0.0184 -0.112782,0.0361 -0.19656,0.12094 -0.422582,0.42788 -1.124874,-0.23839 -1.133534,-1.07538 -0.006,-0.58104 0.404164,-1.04244 0.71724,-0.80681 0.107773,0.0811 0.130085,0.20645 0.05625,0.31602 -0.125331,0.186 -0.148881,0.77744 -0.03439,0.86361 0.124415,0.0936 0.471159,-0.20023 0.450503,-0.38179 -0.01154,-0.10142 -0.09688,-0.66939 -0.189622,-1.26209 -0.242671,-1.55077 -0.415939,-3.8521 -0.377379,-5.01233 0.100765,-3.03198 0.867879,-4.90629 2.476014,-6.04974 z m 7.08217,6.30498 c 0.987053,-0.27766 1.840521,0.28657 1.924095,1.27203 0.04512,0.53194 -0.0378,0.79096 -0.211392,0.66031 -0.04654,-0.0351 -0.07501,-0.11635 -0.06327,-0.18073 0.01174,-0.0644 -0.10148,-0.27507 -0.251632,-0.46819 -0.308622,-0.39696 -0.714489,-0.54034 -0.925324,-0.32686 -0.114759,0.1162 -0.100361,0.12663 0.167175,0.12101 0.360851,-0.007 0.662624,0.20633 0.657042,0.46574 -0.0066,0.3093 -0.383477,0.51919 -0.768064,0.4278 -0.192034,-0.0456 -0.375984,-0.0558 -0.408774,-0.0226 -0.0328,0.0332 0.117231,0.68158 0.333382,1.44083 0.21615,0.75925 0.444869,1.75978 0.508261,2.22339 0.168492,1.23224 0.287008,1.85459 0.364242,1.91271 0.03752,0.0282 0.2203,-0.0343 0.406199,-0.13904 0.278077,-0.1566 0.392995,-0.15645 0.648189,8.9e-4 0.384593,0.23712 0.348428,0.60992 -0.07291,0.75168 -0.324251,0.10911 -0.329573,0.24964 -0.0096,0.25489 0.285793,0.005 0.424553,-0.22616 0.529158,-0.88031 0.04126,-0.25809 0.114954,-0.47182 0.163741,-0.47498 0.182163,-0.0118 0.465625,0.83032 0.413232,1.2276 -0.162969,1.23577 -1.776707,1.56507 -2.825438,0.57654 -0.508301,-0.47911 -0.653439,-1.12052 -0.523841,-2.31499 0.160496,-1.47927 0.114266,-1.68701 -0.723653,-3.25188 -0.247683,-0.46257 -0.498787,-1.01348 -0.558009,-1.22426 -0.227821,-0.81084 0.370149,-1.81046 1.227245,-2.05157 z m -4.533989,8.34537 c 0.827206,-0.29634 1.757908,0.003 2.065669,0.66489 0.389223,0.8368 -0.146278,1.82263 -1.059853,1.95115 -0.249146,0.0351 -0.552756,0.0211 -0.674693,-0.0311 -0.286253,-0.12248 -0.197633,-0.21006 0.163292,-0.16139 0.442663,0.0597 0.821658,-0.16785 0.978724,-0.5876 0.242159,-0.64714 -0.289907,-1.26074 -0.989808,-1.14147 -0.493132,0.084 -0.764445,0.35447 -0.73258,0.73023 0.03557,0.41944 -0.107572,0.51461 -0.34244,0.22768 -0.466581,-0.57002 -0.177702,-1.37676 0.591685,-1.65238 z m 8.286752,-7.44728 c 0.36362,-0.0805 0.613529,0.0764 0.813341,0.51052 0.16538,0.35931 0.15941,0.95581 -0.01129,1.12865 -0.104938,0.10626 -0.122327,0.0934 -0.1587,-0.11708 -0.02247,-0.13003 -0.07598,-0.30798 -0.118928,-0.39545 -0.08305,-0.16918 -0.03033,0.23962 0.138334,1.07265 0.46488,2.296 0.488629,2.36201 0.927653,2.57845 0.259114,0.12774 0.3268,0.25228 0.394817,0.7264 0.09839,0.68579 -0.05611,1.01907 -0.494444,1.06666 -0.348269,0.0378 -0.689726,-0.17337 -0.854394,-0.52841 -0.137888,-0.29729 -0.227825,-0.98901 -0.140138,-1.0778 0.08448,-0.0856 0.159009,-0.75835 0.138612,-1.25143 -0.02085,-0.50421 -0.276169,-1.28415 -0.467503,-1.42815 -0.08411,-0.0633 -0.29249,-0.40657 -0.463052,-0.76281 -0.227053,-0.47423 -0.278618,-0.74765 -0.192529,-1.02086 0.142605,-0.45254 0.108228,-0.41725 0.48823,-0.50134 z m 3.643077,-0.0509 c 2.006743,-0.39746 2.134279,-0.31627 2.476752,1.57676 0.137377,0.75937 0.237327,1.45038 0.222112,1.5356 -0.01521,0.0852 0.03103,0.19911 0.102745,0.2531 0.07172,0.054 0.09717,0.13182 0.05653,0.17297 -0.04064,0.0412 0.0035,0.2286 0.09809,0.41654 0.180287,0.35828 0.148771,1.0795 -0.05624,1.28708 -0.283167,0.28671 -2.983877,0.69085 -3.399251,0.50867 -0.281922,-0.12365 -0.510903,-0.54851 -0.587354,-1.08979 -0.02796,-0.19797 -0.09604,-0.62903 -0.151272,-0.95792 -0.208476,-1.24122 -0.255619,-1.7298 -0.183677,-1.9036 0.111374,-0.26906 0.37708,-0.17564 0.365809,0.12862 -0.0055,0.14629 0.0978,0.58553 0.229365,0.97611 0.13157,0.39058 0.248302,0.79533 0.259411,0.89944 0.02633,0.24683 0.0715,0.27341 0.215994,0.1271 0.0653,-0.0662 0.07194,-0.19624 0.01476,-0.28918 -0.109833,-0.17851 -0.217791,-1.09251 -0.138522,-1.17277 0.110871,-0.11226 0.330546,0.39092 0.369092,0.84544 0.02309,0.2722 0.08108,0.52436 0.128898,0.56033 0.128149,0.0964 -0.185356,0.37451 -0.358199,0.31772 -0.111802,-0.0367 -0.145876,-0.006 -0.139496,0.12537 0.0066,0.13602 0.08649,0.16894 0.366068,0.15087 0.321587,-0.0207 0.359546,-4.8e-4 0.376665,0.20138 0.02643,0.31176 0.101325,0.34607 0.744294,0.34099 0.882077,-0.007 1.041492,-0.0947 1.048117,-0.5767 0.0031,-0.22628 0.03787,-0.44404 0.07724,-0.48391 0.03936,-0.0398 0.01088,-0.11816 -0.06331,-0.17399 -0.0742,-0.0558 -0.09278,-0.14416 -0.0413,-0.19627 0.136663,-0.13837 -0.16404,-2.96885 -0.328556,-3.09267 -0.251882,-0.18956 -0.604491,-0.20061 -1.733077,-0.0543 -0.845489,0.10959 -1.1478,0.19597 -1.255108,0.35858 -0.155728,0.23599 -0.252366,0.21818 -0.275169,-0.0507 -0.02819,-0.33227 0.311898,-0.49391 1.558606,-0.74083 z M 63.143118,169.4237 c 1.543932,-0.52991 2.804857,1.15439 1.700971,2.2721 -0.381861,0.38664 -0.934381,0.54801 -1.316541,0.3845 -0.283876,-0.12146 -0.196484,-0.21151 0.213624,-0.22013 0.457336,-0.009 0.778982,-0.38103 0.72088,-0.83245 -0.06083,-0.47258 -0.367859,-0.70354 -0.890348,-0.66979 -0.520621,0.0336 -0.669679,0.18632 -0.612859,0.62775 0.05997,0.46595 0.0064,0.49576 -0.374975,0.20873 -0.23561,-0.17732 -0.331344,-0.35636 -0.357886,-0.66935 -0.0431,-0.50827 0.264161,-0.87726 0.917164,-1.10137 z m 11.238404,-9.32914 c 0.125586,0.0955 0.310846,0.75445 0.397994,1.41568 0.04779,0.36261 0.123157,0.83985 0.167483,1.06055 0.04432,0.22069 0.03661,0.4458 -0.01717,0.50025 -0.05377,0.0544 -0.0544,0.13161 -0.0013,0.17148 0.196666,0.14801 0.146682,0.53934 -0.0765,0.59886 -0.372892,0.0994 -0.49438,-0.0309 -0.303605,-0.32577 0.126899,-0.19615 0.131583,-0.32327 0.01513,-0.4109 -0.09273,-0.0698 -0.116276,-0.17989 -0.05232,-0.24465 0.06396,-0.0648 0.08173,-0.14375 0.0395,-0.17553 -0.09109,-0.0686 -0.173636,-0.548 -0.288475,-1.67549 -0.07847,-0.77045 -0.04351,-1.0383 0.119358,-0.91448 z m -5.266214,7.53108 c 0.735438,-0.54198 1.247942,-0.83836 1.44415,-0.83514 0.189746,0.003 0.161099,0.0667 -0.192104,0.42644 -0.82285,0.83807 -1.423685,2.24573 -1.187174,2.78137 0.313541,0.71008 0.894894,0.50569 1.729145,-0.60795 1.206457,-1.61049 1.952322,-2.16639 3.382896,-2.5213 1.143528,-0.2837 3.59827,-0.40171 5.37602,-0.25845 2.433245,0.19609 3.279983,0.42902 7.886114,2.16941 1.257785,0.47524 2.042553,0.59817 2.747313,0.43035 0.55346,-0.13179 0.74736,-0.30363 0.71906,-0.63729 -0.036,-0.42382 -0.84431,-0.82021 -2.344372,-1.14955 -1.722972,-0.37827 -2.508053,-0.71536 -3.007632,-1.29137 -0.508623,-0.58643 -0.835404,-1.38706 -0.863093,-2.11458 -0.03298,-0.86645 0.199055,-1.02893 0.325978,-0.22827 0.05489,0.34626 0.254162,0.87661 0.442833,1.17856 0.527011,0.84346 1.025574,1.10639 2.966357,1.56443 2.518179,0.59428 3.355109,1.10098 3.438279,2.08158 0.0723,0.85233 -0.75356,1.4401 -2.07468,1.47657 -1.029633,0.0284 -1.57048,-0.11143 -3.568248,-0.92268 -3.315747,-1.34645 -4.736245,-1.64862 -7.946638,-1.69044 -1.806854,-0.0235 -3.261001,0.1278 -4.078964,0.42451 -0.731819,0.26546 -1.283656,0.78727 -2.099475,1.98524 -0.687037,1.00886 -1.286113,1.51924 -2.051018,1.74736 -0.618534,0.18446 -1.418154,0.0892 -1.825689,-0.21751 -0.57995,-0.43647 -0.764031,-1.2824 -0.46294,-2.12738 0.174217,-0.48892 0.81793,-1.35001 1.243882,-1.66391 z M 87.030899,150.3184 c 1.71673,-0.11095 2.153202,2.0155 0.530518,2.58463 -0.385535,0.13523 -1.080303,-0.0483 -1.285888,-0.3398 -0.200226,-0.28383 -0.184358,-0.87942 0.02379,-0.89287 0.128131,-0.008 0.172961,0.0259 0.155964,0.11918 -0.03474,0.19044 0.356116,0.45006 0.619379,0.41142 0.266342,-0.0391 0.503058,-0.40225 0.475328,-0.72922 -0.04978,-0.58725 -0.930819,-0.6635 -1.329754,-0.11509 -0.107766,0.14815 -0.243381,0.26275 -0.301366,0.2547 -0.211702,-0.0294 -0.03144,-0.58747 0.297287,-0.92031 0.267768,-0.27112 0.43627,-0.34819 0.814743,-0.37265 z m -20.994783,20.9768 c 0.571663,-0.17199 1.456952,0.26444 1.634824,0.80593 0.217219,0.66128 -0.197663,1.29562 -0.902426,1.37977 l -0.440315,0.0526 0.407037,-0.31872 c 0.46845,-0.36681 0.516019,-0.69715 0.141027,-0.97936 -0.536212,-0.40356 -1.168327,-0.17723 -1.070498,0.38328 0.02523,0.14456 -0.0033,0.27642 -0.06347,0.29299 -0.214523,0.0591 -0.467109,-0.24455 -0.497044,-0.59753 -0.0327,-0.38558 0.357768,-0.88864 0.790874,-1.01893 z m 15.352012,-13.32748 c 0.566308,-0.13287 1.254603,-0.24842 1.529545,-0.25678 0.454371,-0.0138 0.535435,0.0196 0.890204,0.36751 0.21467,0.21049 0.458871,0.50684 0.542666,0.65856 0.360114,0.65199 0.632243,3.11286 0.428803,3.87767 -0.13575,0.51035 -0.159212,0.53994 -0.541794,0.68312 -0.515742,0.193 -2.348426,0.45979 -2.800259,0.40764 -0.324209,-0.0374 -0.368035,-0.0727 -0.621834,-0.49964 -0.150173,-0.25265 -0.260752,-0.61946 -0.245728,-0.81513 0.01503,-0.19567 -0.0023,-0.378 -0.03836,-0.40518 -0.03612,-0.0272 -0.09645,-0.30352 -0.13407,-0.61407 -0.03762,-0.31055 -0.107211,-0.82286 -0.154647,-1.13845 -0.06591,-0.43846 -0.03543,-0.60113 0.129196,-0.68963 0.276453,-0.14861 0.521062,0.0296 0.320037,0.23308 -0.09452,0.0957 -0.09067,0.28909 0.01006,0.50564 0.08973,0.19286 0.162087,0.38745 0.160787,0.43242 -0.0036,0.12681 0.22004,0.86495 0.274586,0.90599 0.02673,0.0201 0.100942,-0.0164 0.164894,-0.0812 0.06396,-0.0647 0.08318,-0.14267 0.0427,-0.17313 -0.09566,-0.072 -0.245021,-1.05055 -0.171683,-1.12481 0.126323,-0.12791 0.258081,0.12613 0.408895,0.78836 0.08764,0.38485 0.115282,0.74433 0.06142,0.79887 -0.05386,0.0545 -0.04845,0.13834 0.01201,0.18625 0.06047,0.0479 0.136627,0.19566 0.169245,0.32837 0.0498,0.20254 0.02089,0.24691 -0.180131,0.27641 -0.182472,0.0267 -0.235998,0.0757 -0.224972,0.20573 0.01102,0.13 0.253405,0.15638 1.018733,0.11089 0.552348,-0.0329 1.104842,-0.12128 1.227763,-0.19655 0.184922,-0.11321 0.193667,-0.49042 0.05067,-2.18558 -0.09506,-1.12683 -0.239958,-2.09928 -0.322002,-2.16104 -0.262032,-0.19719 -0.603058,-0.20933 -1.740304,-0.0619 -0.886831,0.11495 -1.137486,0.18954 -1.240924,0.36925 -0.140631,0.24433 -0.268165,0.21763 -0.291801,-0.0611 -0.02551,-0.30082 0.203475,-0.42228 1.266266,-0.67162 z m 1.563131,0.98925 c 0.151105,0.21058 0.34617,1.22831 0.49992,2.60832 0.06777,0.60828 0.04214,0.77258 -0.124273,0.797 -0.172898,0.0254 -0.218037,-0.0506 -0.25754,-0.43339 -0.02634,-0.25528 -0.100527,-0.7193 -0.16486,-1.03114 -0.167254,-0.81078 -0.267782,-1.97945 -0.178083,-2.07028 0.04352,-0.0441 0.140292,0.0117 0.224836,0.12949 z m 3.386694,-1.0321 c 0.468851,-0.0906 1.958633,-0.25811 3.310615,-0.37214 8.10045,-0.68321 15.185652,-1.58199 22.635982,-2.87144 5.95638,-1.03089 7.9834,-1.28157 8.58984,-1.06227 0.22022,0.0796 0.43136,0.11344 0.46919,0.0752 0.0378,-0.0383 0.18573,-0.0468 0.32866,-0.0189 0.22049,0.043 0.23062,0.0655 0.0669,0.14816 -0.10617,0.0536 -0.27279,0.0989 -0.37033,0.1008 -0.0976,0.002 -1.01743,0.13967 -2.04417,0.30628 -1.89585,0.30762 -3.78481,0.55558 -5.11228,0.67107 -1.17702,0.10235 -4.28834,0.54242 -6.12263,0.8659 -3.63893,0.64173 -9.990602,1.5672 -13.540982,1.97298 -1.07557,0.12293 -2.423,0.27888 -2.99429,0.34656 -0.57128,0.0677 -1.79294,0.12609 -2.714796,0.12981 -0.92186,0.004 -2.050881,0.009 -2.508945,0.0129 -0.458061,0.003 -0.835627,-0.0268 -0.839032,-0.067 -0.0034,-0.0401 0.377413,-0.14721 0.846269,-0.23786 z m 0.358089,3.75632 c 0.667101,-0.15144 1.560641,-0.36753 3.213126,-0.77706 1.29382,-0.32062 3.81783,-0.76438 6.93111,-1.21855 2.35174,-0.34308 5.600792,-0.89718 11.043732,-1.88343 1.08811,-0.19715 3.53416,-0.60393 5.43567,-0.90395 1.9015,-0.30001 4.32527,-0.7003 5.38613,-0.88955 1.71478,-0.30588 2.43025,-0.35839 2.23858,-0.16432 -0.16345,0.16549 -3.65784,0.82706 -7.71951,1.46148 -3.94029,0.61546 -5.79365,0.93956 -9.36922,1.63838 -1.58778,0.31032 -4.646452,0.87184 -6.797032,1.24783 -2.15058,0.37599 -4.46488,0.78955 -5.1429,0.91903 -4.28308,0.81792 -6.274152,1.07727 -5.92882,0.77228 0.03451,-0.0305 0.353617,-0.12144 0.709134,-0.20214 z m 37.172348,-11.82371 c 0.36111,0.0705 0.44254,0.15464 0.47066,0.48624 0.0254,0.30006 -0.33034,0.76809 -0.55963,0.73622 -0.0705,-0.009 -0.11449,-0.13824 -0.0975,-0.28541 0.017,-0.14715 -0.0388,-0.27724 -0.12399,-0.28908 -0.2092,-0.0291 -0.26321,-0.37413 -0.0866,-0.55299 0.0786,-0.0795 0.25722,-0.12228 0.39702,-0.095 z m -1.62556,2.0315 c 1.05644,-0.61748 2.0662,-0.55935 4.57863,0.26359 2.04063,0.6684 2.81459,0.84125 4.64275,1.03681 0.77045,0.0824 1.43602,0.17635 1.47905,0.20874 0.19168,0.14425 -0.16373,0.20157 -1.69205,0.27288 -1.92622,0.0899 -2.92795,-0.0448 -5.1371,-0.69067 -2.58142,-0.7547 -2.79758,-0.77073 -4.00807,-0.2972 -0.45245,0.177 -0.81393,0.27397 -0.80326,0.21548 0.0484,-0.26593 0.50323,-0.7543 0.94005,-1.00963 z m -0.65045,2.19817 c 0.22727,0.0316 0.40547,1.48416 0.20675,1.68536 -0.22378,0.22658 -0.44247,-0.17035 -0.40042,-0.72679 0.0241,-0.31827 -0.005,-0.61783 -0.0663,-0.66569 -0.13406,-0.10606 0.0568,-0.32112 0.25996,-0.29288 z m 4.26138,-3.77715 c 0.34674,0.15208 0.40964,0.41254 0.18663,0.77289 -0.22482,0.36328 -0.44737,0.41961 -0.49307,0.1248 -0.0193,-0.12457 -0.10339,-0.30016 -0.1869,-0.39023 -0.0997,-0.10749 -0.0893,-0.24403 0.03,-0.3974 0.14743,-0.1896 0.2348,-0.21035 0.46345,-0.11006 z m 1.80243,0.51014 c 0.47317,-0.0306 0.60856,0.46923 0.23073,0.85179 -0.20893,0.21156 -0.24136,0.21447 -0.27784,0.025 -0.0227,-0.11797 -0.12659,-0.28065 -0.23081,-0.36153 -0.21958,-0.17037 -0.0448,-0.49443 0.27792,-0.51528 z m -4.95759,5.17525 c 0.15213,0.004 1.69153,0.68162 1.89336,0.83352 0.0128,0.009 0.24208,-0.0857 0.50969,-0.2116 0.68682,-0.32325 1.06785,-0.3061 2.33677,0.10522 0.61356,0.1989 1.22828,0.35434 1.36605,0.34544 0.16367,-0.0106 0.5068,-0.24025 0.99007,-0.6627 0.40678,-0.35557 0.85392,-0.68363 0.99363,-0.729 0.43268,-0.14054 1.29647,-0.12848 2.28311,0.0318 1.72597,0.2805 1.79978,0.26361 1.9336,-0.44247 0.0507,-0.26777 -0.0219,-0.52658 -0.24268,-0.86477 -0.17331,-0.26544 -0.28841,-0.50965 -0.25578,-0.54269 0.1136,-0.115 0.73188,0.45384 0.95867,0.882 0.33197,0.62672 0.24824,0.93656 -0.42067,1.55702 -0.55665,0.51631 -0.55665,0.51631 -1.51024,0.45012 -2.11401,-0.14674 -1.91202,-0.19595 -2.89264,0.70479 -0.81525,0.74884 -0.89766,0.79953 -1.43975,0.8854 -0.74489,0.11802 -1.22615,0.0346 -2.23768,-0.38764 -0.77765,-0.32464 -0.85274,-0.33356 -1.2949,-0.15389 -0.90238,0.36667 -1.48067,0.15883 -2.42217,-0.87054 -0.72719,-0.79504 -0.81081,-0.93686 -0.54843,-0.93007 z m 6.75322,-4.92385 c 0.22359,-0.0144 0.5447,0.19586 0.60924,0.39901 0.0623,0.19608 -0.0676,0.60815 -0.25006,0.79283 -0.16631,0.1684 -0.34513,0.12105 -0.30816,-0.0816 0.0117,-0.064 -0.12406,-0.18801 -0.30163,-0.27555 -0.21907,-0.10801 -0.31365,-0.21362 -0.29415,-0.32849 0.041,-0.24136 0.30962,-0.49102 0.54476,-0.50621 z m 2.08648,0.33245 c 0.16651,-0.0368 0.36299,-0.0217 0.43662,0.0337 0.21426,0.16124 0.21261,0.80024 -0.002,1.01816 -0.25042,0.25354 -0.36956,0.16626 -0.30999,-0.22708 0.0521,-0.34312 -0.0684,-0.50085 -0.24547,-0.32159 -0.16144,0.16346 -0.30093,0.0305 -0.23554,-0.22454 0.039,-0.15238 0.13908,-0.23047 0.35699,-0.2787 z m 1.82632,0.2928 c 0.18218,-0.0876 0.32198,-0.0657 0.51724,0.0813 0.31501,0.23708 0.30975,0.65283 -0.0125,0.97903 -0.24039,0.2434 -0.3754,0.20369 -0.36867,-0.10846 0.003,-0.13785 -0.0515,-0.20409 -0.16226,-0.19693 -0.19298,0.0124 -0.36438,-0.29592 -0.27886,-0.50177 0.0305,-0.0732 0.16767,-0.18722 0.30497,-0.25323 z"
       id="path791-3"
       inkscape:export-filename="C:\Users\jaine\OneDrive\Escritorio\Joel\proyectos_git\grupo_2_instrumentosMusicalesDH\public\images\logo.svg"
       inkscape:export-xdpi="193.25876"
       inkscape:export-ydpi="193.25876" />
    <path
       style="mix-blend-mode:normal;fill:url(#radialGradient28641);fill-opacity:1;stroke:#eeeeee;stroke-width:0.107;stroke-miterlimit:4;stroke-dasharray:none;stroke-opacity:1"
       d="m 58.821299,151.47641 c 0.622603,-0.44269 1.920161,-1.00797 2.875719,-1.25281 2.062811,-0.52855 3.873197,-0.19739 8.527681,1.55989 2.095566,0.79117 3.124502,1.01655 4.295449,0.94088 1.619291,-0.10465 2.397123,-0.51758 4.429132,-2.35133 0.751081,-0.67779 1.648738,-1.4131 1.994795,-1.634 2.324118,-1.48362 5.361562,-1.40983 7.476159,0.1816 2.054179,1.54597 2.422808,3.29996 1.171645,5.57485 -0.76748,1.39546 -0.919106,1.62554 -0.996963,1.51281 -0.07987,-0.11564 -0.03068,-0.45194 0.26183,-1.7902 0.402794,-1.84279 0.200415,-2.83608 -0.783318,-3.84457 -0.987161,-1.01201 -2.505735,-1.53624 -3.908971,-1.34942 -1.301851,0.17333 -2.204008,0.68339 -3.999458,2.26121 -1.871721,1.64485 -2.901037,2.27397 -4.355768,2.66225 -0.388496,0.1037 -0.704312,0.21265 -0.701813,0.24211 0.0025,0.0295 0.288618,0.0966 0.63582,0.14911 0.347202,0.0525 1.106554,0.19977 1.687448,0.32717 2.09578,0.45965 3.216216,0.34921 4.452363,-0.43887 0.365177,-0.23281 0.913754,-0.58051 1.21906,-0.77266 1.105568,-0.69582 2.31817,-0.72129 3.187628,-0.0669 0.674359,0.50752 0.934741,1.18162 0.738612,1.9122 -0.09517,0.35451 -0.907518,1.39171 -1.022307,1.30528 -0.04266,-0.0321 0.01286,-0.35659 0.123375,-0.72104 0.246288,-0.8122 0.159044,-1.21378 -0.350779,-1.61462 -0.707583,-0.55633 -1.490381,-0.43026 -2.639607,0.42509 -1.882192,1.40089 -3.524777,1.69345 -6.264693,1.11579 -1.398057,-0.29476 -3.043279,-0.346 -3.580645,-0.11154 -0.519623,0.22672 -0.92634,0.67571 -1.201231,1.32606 -0.130487,0.30871 -0.281767,0.56417 -0.336177,0.56768 -0.05441,0.004 -0.12425,-0.21644 -0.155199,-0.4888 -0.129212,-1.13711 0.62899,-2.29971 1.719333,-2.63636 0.297611,-0.0919 0.557801,-0.18397 0.578201,-0.20462 0.0204,-0.0207 -0.16171,-0.0601 -0.40469,-0.0877 -1.027552,-0.11663 -2.409378,-0.48575 -3.797712,-1.01449 -4.539342,-1.72876 -5.987847,-1.98468 -7.762323,-1.37142 -1.20214,0.41546 -1.892821,0.84182 -2.500889,1.54382 -0.449616,0.51908 -0.556317,0.74117 -0.865106,1.8007 -0.436516,1.49779 -0.598574,3.00309 -0.525439,4.88062 0.08878,2.27923 0.435028,4.01015 1.282078,6.40927 0.957274,2.71131 2.267107,4.47628 4.086509,5.50649 1.91274,1.08306 3.701949,1.21212 5.383516,0.38832 0.555227,-0.272 0.787932,-0.4776 2.640128,-2.33257 1.899329,-1.90217 2.072474,-2.05397 2.666305,-2.33755 0.891696,-0.42582 1.650172,-0.63464 2.625468,-0.72281 1.819061,-0.16444 3.421328,0.13991 7.054023,1.33995 2.701097,0.89229 3.966635,1.16461 5.078389,1.09276 1.780606,-0.11507 3.012698,-1.14517 2.87197,-2.40112 -0.11478,-1.02436 -0.861803,-1.43441 -2.956356,-1.62277 -1.524649,-0.1371 -2.090771,-0.30137 -2.750995,-0.79825 -0.686079,-0.51635 -0.906098,-1.18478 -0.665999,-2.02336 0.103138,-0.36023 0.498794,-1.00565 0.579328,-0.94504 0.02769,0.0208 0.003,0.32603 -0.05482,0.6782 -0.127772,0.77793 0.04597,1.22329 0.591957,1.51744 0.511387,0.2755 0.868114,0.34358 2.214061,0.42253 2.5904,0.15194 3.829545,0.78879 4.242121,2.18019 0.568087,1.91587 -1.356709,3.77257 -4.068332,3.92439 -1.282292,0.0718 -2.546917,-0.1919 -5.477339,-1.14215 -4.070598,-1.31997 -5.725915,-1.50254 -7.567288,-0.8346 -0.978446,0.35493 -1.468282,0.7418 -2.666419,2.10594 -1.629634,1.85543 -2.639926,2.83109 -3.336662,3.22229 -1.973723,1.1082 -3.993278,1.19679 -6.413748,0.28135 -0.71332,-0.26979 -1.001938,-0.44536 -2.124743,-1.29257 -1.13471,-0.8562 -1.348814,-1.05627 -1.690199,-1.57949 -0.857805,-1.31472 -1.352131,-2.59446 -2.072278,-5.36483 -0.195032,-0.75029 -0.373799,-1.3786 -0.397262,-1.39626 -0.02347,-0.0177 -0.108758,0.0348 -0.189547,0.11663 -0.407505,0.41261 -1.084741,-0.22989 -1.093092,-1.03702 -0.0058,-0.56031 0.389744,-1.00524 0.691651,-0.77802 0.103927,0.0782 0.125443,0.19908 0.05424,0.30474 -0.12086,0.17937 -0.143569,0.74971 -0.03316,0.8328 0.119976,0.0903 0.454349,-0.19308 0.43443,-0.36817 -0.01113,-0.0978 -0.09342,-0.6455 -0.182857,-1.21706 -0.234013,-1.49544 -0.401099,-3.71466 -0.363915,-4.8335 0.09717,-2.9238 0.836915,-4.73124 2.387675,-5.83389 z m 6.829492,6.08003 c 0.951837,-0.26776 1.774855,0.27634 1.855447,1.22664 0.04351,0.51297 -0.03645,0.76274 -0.20385,0.63676 -0.04488,-0.0338 -0.07233,-0.1122 -0.06101,-0.17429 0.01132,-0.0621 -0.09786,-0.26525 -0.242655,-0.45148 -0.297611,-0.3828 -0.688997,-0.52106 -0.89231,-0.3152 -0.110665,0.11205 -0.09678,0.12211 0.161211,0.11669 0.347976,-0.007 0.638982,0.19897 0.6336,0.44913 -0.0064,0.29826 -0.369796,0.50066 -0.740661,0.41253 -0.185183,-0.044 -0.36257,-0.0538 -0.39419,-0.0218 -0.03163,0.032 0.113048,0.65726 0.321487,1.38942 0.208439,0.73216 0.428997,1.697 0.490128,2.14407 0.16248,1.18827 0.276768,1.78842 0.351246,1.84447 0.03618,0.0272 0.21244,-0.0331 0.391707,-0.13408 0.268156,-0.15102 0.378974,-0.15087 0.625063,8.5e-4 0.370871,0.22866 0.335997,0.58816 -0.07031,0.72487 -0.312682,0.10521 -0.317814,0.24073 -0.0093,0.24579 0.275597,0.005 0.409406,-0.21809 0.510279,-0.8489 0.03979,-0.24888 0.110853,-0.45499 0.157899,-0.45803 0.175664,-0.0114 0.449012,0.80069 0.398489,1.1838 -0.157155,1.19168 -1.713318,1.50923 -2.724632,0.55597 -0.490166,-0.46202 -0.630126,-1.08054 -0.505152,-2.2324 0.15477,-1.42649 0.110189,-1.62682 -0.697834,-3.13586 -0.238846,-0.44606 -0.480992,-0.97732 -0.538101,-1.18058 -0.219692,-0.78191 0.356943,-1.74586 1.18346,-1.97837 z m -4.372225,8.04762 c 0.797693,-0.28577 1.695189,0.003 1.99197,0.64117 0.375336,0.80694 -0.141059,1.7576 -1.02204,1.88154 -0.240257,0.0338 -0.533035,0.0203 -0.650621,-0.03 -0.27604,-0.11811 -0.190582,-0.20257 0.157466,-0.15564 0.42687,0.0576 0.792343,-0.16186 0.943805,-0.56663 0.233519,-0.62405 -0.279564,-1.21576 -0.954494,-1.10075 -0.475538,0.081 -0.737171,0.34183 -0.706443,0.70418 0.0343,0.40448 -0.103734,0.49625 -0.330222,0.21956 -0.449934,-0.54968 -0.171362,-1.32764 0.570575,-1.59343 z m 7.991097,-7.18157 c 0.350647,-0.0776 0.59164,0.0737 0.784323,0.4923 0.159479,0.34649 0.153722,0.92171 -0.01089,1.08838 -0.101194,0.10247 -0.117963,0.0901 -0.153038,-0.1129 -0.02167,-0.12539 -0.07327,-0.29699 -0.114685,-0.38134 -0.08009,-0.16314 -0.02925,0.23107 0.133398,1.03438 0.448294,2.21408 0.471196,2.27774 0.894557,2.48646 0.249869,0.12318 0.31514,0.24327 0.38073,0.70048 0.09488,0.66132 -0.05411,0.98271 -0.476803,1.0286 -0.335843,0.0365 -0.665118,-0.16718 -0.823911,-0.50955 -0.132968,-0.28669 -0.219697,-0.95373 -0.135138,-1.03935 0.08147,-0.0825 0.153336,-0.73129 0.133667,-1.20678 -0.02011,-0.48622 -0.266316,-1.23834 -0.450824,-1.3772 -0.08111,-0.061 -0.282054,-0.39206 -0.446531,-0.73559 -0.218952,-0.45731 -0.268678,-0.72098 -0.18566,-0.98444 0.137517,-0.4364 0.104367,-0.40236 0.470811,-0.48345 z m 3.513099,-0.0491 c 1.935147,-0.38328 2.058133,-0.30498 2.388387,1.52051 0.132476,0.73227 0.22886,1.39863 0.214187,1.48081 -0.01467,0.0822 0.02992,0.19201 0.09908,0.24407 0.06916,0.0521 0.0937,0.12712 0.05451,0.1668 -0.03919,0.0397 0.0034,0.22044 0.09459,0.40168 0.173855,0.34549 0.143463,1.04098 -0.05423,1.24116 -0.273064,0.27648 -2.877419,0.6662 -3.277973,0.49052 -0.271863,-0.11924 -0.492675,-0.52894 -0.566398,-1.05091 -0.02696,-0.19091 -0.09261,-0.60659 -0.145875,-0.92374 -0.201038,-1.19694 -0.246499,-1.66809 -0.177124,-1.83569 0.1074,-0.25946 0.363627,-0.16937 0.352758,0.12403 -0.0053,0.14107 0.09431,0.56464 0.221181,0.94129 0.126876,0.37664 0.239444,0.76695 0.250156,0.86735 0.02539,0.23802 0.06895,0.26365 0.208288,0.12256 0.06297,-0.0638 0.06937,-0.18924 0.01423,-0.27886 -0.105914,-0.17214 -0.21002,-1.05353 -0.133579,-1.13093 0.106915,-0.10825 0.318752,0.37698 0.355923,0.81528 0.02227,0.26249 0.07819,0.50565 0.124299,0.54034 0.123577,0.093 -0.178743,0.36115 -0.345419,0.30638 -0.107813,-0.0354 -0.140671,-0.006 -0.134519,0.1209 0.0064,0.13117 0.0834,0.16291 0.353008,0.14549 0.310113,-0.02 0.346718,-4.7e-4 0.363226,0.19419 0.02549,0.30064 0.09771,0.33372 0.717739,0.32883 0.850606,-0.007 1.004334,-0.0913 1.010722,-0.55613 0.003,-0.21821 0.03652,-0.4282 0.07448,-0.46664 0.03796,-0.0384 0.01049,-0.11395 -0.06105,-0.16779 -0.07155,-0.0538 -0.08947,-0.13901 -0.03983,-0.18926 0.131787,-0.13344 -0.158187,-2.86293 -0.316834,-2.98233 -0.242895,-0.1828 -0.582924,-0.19346 -1.671244,-0.0524 -0.815324,0.10568 -1.106849,0.18897 -1.210328,0.34578 -0.150172,0.22757 -0.243362,0.2104 -0.265352,-0.0489 -0.02718,-0.32041 0.30077,-0.47629 1.502998,-0.7144 z m -9.700445,9.87696 c 1.488848,-0.511 2.704786,1.11321 1.640284,2.19104 -0.368237,0.37285 -0.901044,0.52846 -1.269569,0.37078 -0.273748,-0.11712 -0.189474,-0.20396 0.206002,-0.21227 0.441019,-0.009 0.75119,-0.36744 0.695161,-0.80275 -0.05866,-0.45572 -0.354735,-0.67844 -0.858583,-0.6459 -0.502046,0.0324 -0.645786,0.17968 -0.590993,0.60536 0.05783,0.44932 0.0062,0.47807 -0.361597,0.20128 -0.227204,-0.17099 -0.319522,-0.34365 -0.345117,-0.64547 -0.04156,-0.49014 0.254736,-0.84596 0.884441,-1.06208 z m 10.837441,-8.99629 c 0.121105,0.0921 0.299756,0.72753 0.383794,1.36517 0.04608,0.34967 0.118763,0.80989 0.161508,1.02271 0.04274,0.21282 0.0353,0.4299 -0.01656,0.4824 -0.05185,0.0525 -0.05246,0.12692 -0.0013,0.16537 0.189649,0.14273 0.141448,0.52009 -0.07377,0.57749 -0.359588,0.0959 -0.476742,-0.0298 -0.292773,-0.31415 0.122371,-0.18915 0.126888,-0.31173 0.01459,-0.39624 -0.08942,-0.0673 -0.112127,-0.17347 -0.05045,-0.23592 0.06168,-0.0625 0.07881,-0.13862 0.03809,-0.16927 -0.08784,-0.0661 -0.167441,-0.52844 -0.278182,-1.61571 -0.07567,-0.74296 -0.04196,-1.00125 0.115099,-0.88185 z m -5.078326,7.26239 c 0.709199,-0.52265 1.203418,-0.80845 1.392625,-0.80535 0.182977,0.003 0.155352,0.0643 -0.18525,0.41123 -0.793492,0.80817 -1.37289,2.1656 -1.144818,2.68213 0.302355,0.68475 0.862966,0.48765 1.667453,-0.58626 1.163413,-1.55303 1.882667,-2.08909 3.262201,-2.43134 1.102729,-0.27358 3.469891,-0.38738 5.184214,-0.24923 2.346432,0.18909 3.16296,0.41371 7.604752,2.09201 1.212913,0.45828 1.969677,0.57683 2.649295,0.415 0.533717,-0.12709 0.720693,-0.2928 0.693406,-0.61456 -0.03467,-0.4087 -0.814191,-0.79094 -2.260729,-1.10853 -1.661502,-0.36478 -2.418571,-0.68984 -2.900326,-1.2453 -0.490476,-0.56551 -0.805598,-1.33757 -0.832299,-2.03914 -0.0318,-0.83553 0.191953,-0.99222 0.314348,-0.22012 0.05293,0.3339 0.245094,0.84533 0.427033,1.13651 0.508208,0.81337 0.98898,1.06692 2.860528,1.50861 2.428334,0.57308 3.235408,1.0617 3.315604,2.00732 0.0697,0.82192 -0.726679,1.38872 -2.000654,1.42389 -0.992909,0.0274 -1.514455,-0.10746 -3.440946,-0.88976 -3.197448,-1.29842 -4.567265,-1.58981 -7.663118,-1.63013 -1.742389,-0.0227 -3.144655,0.12324 -3.933435,0.40936 -0.705709,0.25599 -1.237858,0.75918 -2.02457,1.91441 -0.662525,0.97287 -1.240227,1.46504 -1.977842,1.68502 -0.596466,0.17788 -1.367557,0.086 -1.760552,-0.20975 -0.559258,-0.4209 -0.736772,-1.23665 -0.446423,-2.05148 0.168001,-0.47148 0.788748,-1.30184 1.199503,-1.60454 z m 17.276396,-16.68976 c 1.655484,-0.10699 2.076383,1.94359 0.51159,2.49242 -0.37178,0.1304 -1.041757,-0.0466 -1.240007,-0.32768 -0.193083,-0.2737 -0.177781,-0.84804 0.02294,-0.86101 0.123558,-0.008 0.166791,0.025 0.150397,0.11493 -0.0335,0.18364 0.343413,0.434 0.597281,0.39674 0.256837,-0.0377 0.485111,-0.3879 0.45837,-0.70321 -0.04803,-0.56629 -0.897605,-0.63982 -1.282309,-0.11098 -0.103922,0.14286 -0.234698,0.25338 -0.290614,0.24561 -0.204149,-0.0284 -0.03032,-0.56651 0.28668,-0.88747 0.258211,-0.26145 0.420708,-0.33577 0.785674,-0.35936 z m -20.245729,20.22839 c 0.551267,-0.16585 1.404971,0.25501 1.576497,0.77718 0.209469,0.63769 -0.190611,1.24939 -0.870229,1.33054 l -0.424606,0.0507 0.392515,-0.30735 c 0.451737,-0.35373 0.497608,-0.67228 0.135995,-0.94442 -0.517081,-0.38916 -1.126643,-0.17091 -1.032304,0.3696 0.02433,0.13941 -0.0032,0.26656 -0.06121,0.28254 -0.206869,0.057 -0.450443,-0.23582 -0.47931,-0.57621 -0.03153,-0.37182 0.345003,-0.85694 0.762657,-0.98258 z M 80.676382,157.2031 c 0.546104,-0.12813 1.209842,-0.23956 1.474974,-0.24762 0.43816,-0.0133 0.516332,0.0189 0.858444,0.3544 0.207011,0.20298 0.442499,0.48876 0.523304,0.63506 0.347266,0.62873 0.609686,3.0018 0.413505,3.73933 -0.130907,0.49214 -0.153532,0.52067 -0.522464,0.65874 -0.497342,0.18612 -2.264639,0.44339 -2.700352,0.3931 -0.312642,-0.0361 -0.354904,-0.0701 -0.599648,-0.48181 -0.144815,-0.24364 -0.251449,-0.59736 -0.236961,-0.78605 0.01449,-0.18869 -0.0022,-0.36452 -0.03699,-0.39073 -0.03483,-0.0262 -0.09301,-0.29269 -0.129287,-0.59216 -0.03628,-0.29947 -0.103386,-0.7935 -0.149129,-1.09783 -0.06356,-0.42282 -0.03417,-0.57968 0.124586,-0.66502 0.26659,-0.14331 0.502472,0.0285 0.308619,0.22476 -0.09115,0.0923 -0.08743,0.27878 0.0097,0.4876 0.08653,0.18598 0.156304,0.37363 0.15505,0.41699 -0.0035,0.12229 0.21219,0.83409 0.26479,0.87367 0.02578,0.0194 0.09734,-0.0158 0.159011,-0.0783 0.06168,-0.0624 0.08021,-0.13758 0.04118,-0.16695 -0.09225,-0.0694 -0.236279,-1.01307 -0.165558,-1.08468 0.121816,-0.12334 0.248874,0.12163 0.394307,0.76024 0.08451,0.37111 0.111169,0.71777 0.05923,0.77036 -0.05194,0.0526 -0.04672,0.13341 0.01158,0.17961 0.05831,0.0462 0.131752,0.18868 0.163207,0.31665 0.04802,0.19532 0.02014,0.2381 -0.173705,0.26655 -0.175961,0.0258 -0.227578,0.073 -0.216945,0.19839 0.01063,0.12536 0.244364,0.1508 0.982387,0.10693 0.532641,-0.0317 1.065423,-0.11695 1.183958,-0.18953 0.178325,-0.10917 0.186758,-0.47293 0.04886,-2.10761 -0.09167,-1.08662 -0.231397,-2.02438 -0.310514,-2.08393 -0.252683,-0.19016 -0.581542,-0.20187 -1.678213,-0.0597 -0.855191,0.11085 -1.096903,0.18278 -1.196651,0.35608 -0.135613,0.23561 -0.258597,0.20987 -0.28139,-0.0589 -0.0246,-0.29009 0.196216,-0.40721 1.221088,-0.64766 z m 1.507362,0.95396 c 0.145714,0.20306 0.333819,1.18448 0.482084,2.51526 0.06535,0.58657 0.04064,0.74501 -0.119839,0.76856 -0.16673,0.0245 -0.210258,-0.0488 -0.248352,-0.41793 -0.0254,-0.24617 -0.09694,-0.69363 -0.158978,-0.99435 -0.161287,-0.78185 -0.258228,-1.90882 -0.171729,-1.99641 0.04197,-0.0425 0.135286,0.0113 0.216814,0.12487 z m 3.265864,-0.99528 c 0.452125,-0.0874 1.88875,-0.2489 3.192498,-0.35886 7.811441,-0.65884 14.643874,-1.52555 21.828394,-2.769 5.74387,-0.99411 7.69856,-1.23584 8.28337,-1.02437 0.21236,0.0768 0.41596,0.1094 0.45245,0.0725 0.0365,-0.0369 0.1791,-0.0451 0.31693,-0.0182 0.21263,0.0415 0.2224,0.0632 0.0645,0.14288 -0.10238,0.0517 -0.26305,0.0954 -0.35712,0.0972 -0.0941,0.002 -0.98113,0.13469 -1.97124,0.29535 -1.82821,0.29665 -3.64977,0.53576 -4.92988,0.64713 -1.13503,0.0987 -4.13534,0.52307 -5.90419,0.83501 -3.5091,0.61883 -9.634155,1.51128 -13.057871,1.90259 -1.037197,0.11854 -2.336551,0.26893 -2.887454,0.33419 -0.550903,0.0653 -1.728978,0.12159 -2.617945,0.12518 -0.888968,0.004 -1.977712,0.009 -2.41943,0.0124 -0.441718,0.003 -0.805813,-0.0258 -0.809097,-0.0646 -0.0033,-0.0387 0.363948,-0.14196 0.816076,-0.22937 z m 0.345309,3.6223 c 0.643306,-0.14604 1.504963,-0.35442 3.098495,-0.74933 1.247663,-0.30919 3.681616,-0.73711 6.683822,-1.17508 2.267846,-0.33084 5.400986,-0.86517 10.649726,-1.81623 1.04929,-0.19012 3.40807,-0.58239 5.24174,-0.8717 1.83366,-0.28931 4.17095,-0.67532 5.19395,-0.85781 1.65361,-0.29497 2.34355,-0.34561 2.15872,-0.15846 -0.15761,0.15958 -3.52733,0.79755 -7.44409,1.40934 -3.79971,0.5935 -5.58694,0.90603 -9.03495,1.57992 -1.53114,0.29925 -4.480683,0.84074 -6.554543,1.20331 -2.073846,0.36258 -4.30558,0.76138 -4.959403,0.88624 -4.13027,0.78874 -6.050308,1.03884 -5.717297,0.74473 0.03328,-0.0294 0.341001,-0.11711 0.68383,-0.19493 z m 35.846133,-11.40186 c 0.34823,0.068 0.42675,0.14912 0.45387,0.46889 0.0245,0.28935 -0.31855,0.74069 -0.53966,0.70995 -0.068,-0.009 -0.11041,-0.13331 -0.094,-0.27522 0.0164,-0.1419 -0.0374,-0.26735 -0.11956,-0.27877 -0.20174,-0.0281 -0.25383,-0.36078 -0.0835,-0.53326 0.0758,-0.0767 0.24804,-0.11792 0.38285,-0.0916 z m -1.56756,1.95902 c 1.01875,-0.59545 1.99248,-0.5394 4.41527,0.25418 1.96783,0.64456 2.71417,0.81124 4.47711,0.99982 0.74296,0.0795 1.38478,0.17006 1.42628,0.20129 0.18484,0.13911 -0.15789,0.19438 -1.63168,0.26315 -1.8575,0.0867 -2.82349,-0.0432 -4.95382,-0.66603 -2.48932,-0.72777 -2.69777,-0.74323 -3.86507,-0.2866 -0.43631,0.17069 -0.78489,0.2642 -0.7746,0.2078 0.0467,-0.25645 0.48527,-0.72739 0.90651,-0.97361 z m -0.62724,2.11974 c 0.21916,0.0305 0.391,1.43121 0.19937,1.62523 -0.2158,0.2185 -0.42668,-0.16427 -0.38613,-0.70086 0.0232,-0.30691 -0.005,-0.59579 -0.0639,-0.64194 -0.12928,-0.10227 0.0548,-0.30966 0.25068,-0.28243 z m 4.10934,-3.64239 c 0.33437,0.14666 0.39502,0.39782 0.17997,0.74532 -0.2168,0.35032 -0.43141,0.40464 -0.47548,0.12034 -0.0186,-0.12012 -0.0997,-0.28945 -0.18023,-0.3763 -0.0961,-0.10366 -0.0861,-0.23533 0.0289,-0.38322 0.14217,-0.18284 0.22642,-0.20285 0.44692,-0.10614 z m 1.73812,0.49194 c 0.45629,-0.0295 0.58685,0.45249 0.2225,0.8214 -0.20148,0.20401 -0.23275,0.20682 -0.26793,0.0241 -0.0219,-0.11376 -0.12207,-0.27064 -0.22257,-0.34863 -0.21175,-0.16429 -0.0432,-0.47679 0.268,-0.4969 z m -4.78071,4.99061 c 0.1467,0.004 1.63118,0.6573 1.82581,0.80378 0.0123,0.009 0.23344,-0.0826 0.4915,-0.20405 0.66232,-0.31172 1.02975,-0.29518 2.2534,0.10147 0.59167,0.1918 1.18446,0.34169 1.31731,0.33311 0.15783,-0.0102 0.48872,-0.23168 0.95475,-0.63905 0.39227,-0.34289 0.82345,-0.65924 0.95818,-0.703 0.41724,-0.13552 1.25021,-0.12389 2.20165,0.0307 1.66439,0.27049 1.73557,0.2542 1.86461,-0.42668 0.0489,-0.25822 -0.0211,-0.5078 -0.23402,-0.83392 -0.16712,-0.25597 -0.27812,-0.49147 -0.24665,-0.52333 0.10954,-0.1109 0.70577,0.43765 0.92446,0.85053 0.32012,0.60436 0.23939,0.90315 -0.40567,1.50147 -0.53679,0.49789 -0.53679,0.49789 -1.45635,0.43406 -2.03859,-0.1415 -1.84381,-0.18896 -2.78944,0.67965 -0.78616,0.72212 -0.86563,0.771 -1.38838,0.85381 -0.71832,0.11381 -1.18241,0.0334 -2.15785,-0.37381 -0.7499,-0.31306 -0.82231,-0.32166 -1.2487,-0.1484 -0.87018,0.35359 -1.42784,0.15316 -2.33575,-0.83948 -0.70124,-0.76668 -0.78188,-0.90344 -0.52886,-0.89689 z m 6.51228,-4.74818 c 0.21561,-0.0139 0.52526,0.18887 0.5875,0.38478 0.0601,0.18908 -0.0652,0.58645 -0.24114,0.76454 -0.16037,0.16239 -0.33281,0.11673 -0.29716,-0.0787 0.0113,-0.0617 -0.11964,-0.1813 -0.29087,-0.26572 -0.21126,-0.10415 -0.30246,-0.206 -0.28366,-0.31677 0.0395,-0.23275 0.29858,-0.4735 0.52533,-0.48815 z m 2.01204,0.32059 c 0.16056,-0.0355 0.35003,-0.0209 0.42104,0.0325 0.2066,0.15549 0.20502,0.77169 -0.002,0.98183 -0.24148,0.2445 -0.35637,0.16033 -0.29893,-0.21898 0.0502,-0.33087 -0.066,-0.48298 -0.23671,-0.31011 -0.15568,0.15763 -0.29019,0.0294 -0.22714,-0.21653 0.0376,-0.14694 0.13412,-0.22225 0.34426,-0.26876 z m 1.76116,0.28235 c 0.17568,-0.0845 0.31049,-0.0633 0.49878,0.0784 0.30377,0.22863 0.2987,0.62954 -0.012,0.9441 -0.23182,0.23472 -0.36201,0.19643 -0.35553,-0.10459 0.003,-0.13293 -0.0497,-0.1968 -0.15646,-0.1899 -0.1861,0.012 -0.35138,-0.28536 -0.26891,-0.48387 0.0294,-0.0706 0.16169,-0.18054 0.29409,-0.24419 z"
       id="path791"
       inkscape:export-filename="C:\Users\jaine\OneDrive\Escritorio\Joel\proyectos_git\grupo_2_instrumentosMusicalesDH\public\images\logo.svg"
       inkscape:export-xdpi="193.25876"
       inkscape:export-ydpi="193.25876" />
    <path
       style="fill:#000000;stroke-width:0.264583"
       id="path95"
       d="" />
    <path
       style="fill:#000000;stroke-width:0.264583"
       id="path21"
       d="" />
    <path
       style="fill:url(#radialGradient27668);stroke:#eeeeee;stroke-width:0.264583;fill-opacity:1;stroke-opacity:1"
       d="m 90.663732,148.75445 c -0.995545,-1.09301 -1.197322,-1.84286 -1.488147,-5.53031 -0.158932,-2.01518 -0.366993,-3.66396 -0.462354,-3.66396 -0.366794,0 -1.655923,2.17486 -2.23003,3.76223 -0.354263,0.97952 -0.776282,1.69685 -1.027951,1.74728 -0.375581,0.0752 -0.426953,-0.33329 -0.426953,-3.39549 0,-2.65033 -0.07821,-3.45496 -0.327744,-3.37178 -0.398323,0.13277 -0.797841,1.27159 -1.37381,3.91602 -0.457985,2.10274 -1.303101,3.82825 -1.742103,3.55693 -0.46014,-0.28438 -0.280557,-1.56105 0.533241,-3.79091 1.055581,-2.89236 1.11111,-5.30597 0.144317,-6.27276 -0.784209,-0.78421 -0.840637,-0.78751 -1.945638,-0.11381 -0.893246,0.5446 -1.886254,2.29009 -1.897035,3.33458 -0.01169,1.13316 -1.353043,1.52614 -1.953655,0.57238 -0.661548,-1.05053 1.738244,-4.38126 3.695171,-5.12862 1.105445,-0.42217 1.259546,-0.42431 2.088655,-0.0289 0.878248,0.4188 1.450105,1.56758 1.454208,2.9213 0.0013,0.43129 0.09242,0.41001 0.802392,-0.18739 1.401238,-1.17906 1.791594,-0.64536 1.909918,2.61127 l 0.06729,1.85208 0.888886,-1.63888 c 1.117901,-2.06112 1.754029,-2.67663 2.367748,-2.29101 0.363289,0.22826 0.477224,0.87364 0.605269,3.42846 0.292182,5.82988 1.006231,7.51289 3.187491,7.51289 1.042942,0 1.085545,0.0272 0.607946,0.38846 -0.830067,0.62783 -2.831835,0.51843 -3.477114,-0.19003 z m -30.021591,-0.57104 c -1.227438,-0.36531 -1.561055,-0.68573 -0.713982,-0.68573 1.181665,0 1.287639,-0.37377 1.287639,-4.54152 0,-3.61817 -0.03854,-3.92715 -0.522124,-4.18596 -0.635013,-0.33985 -2.148849,-0.39918 -3.589895,-0.14069 -0.848456,0.15218 -1.147242,0.0979 -1.446627,-0.26284 -0.333188,-0.40147 -0.308188,-0.51061 0.213756,-0.93326 0.81747,-0.66195 3.878167,-1.31281 6.173512,-1.31281 3.710965,0 6.511237,1.3405 7.132591,3.4144 0.373466,1.24651 -0.244251,3.67923 -1.154219,4.5456 -0.914486,0.87066 -4.217828,3.05412 -4.954911,3.27512 -0.363802,0.10907 -0.840052,0.40492 -1.058333,0.65743 -0.337022,0.38987 -0.543241,0.41555 -1.367407,0.17026 z m 4.968871,-3.86842 c 2.151843,-1.8319 2.748536,-2.68386 2.748536,-3.9244 0,-1.42384 -2.459359,-2.83891 -4.573814,-2.63168 -1.036332,0.10156 -1.151338,0.54782 -1.4096,5.46963 l -0.185548,3.53607 0.706004,-0.36992 c 0.388303,-0.20345 1.609792,-1.13932 2.714422,-2.0797 z m 43.758948,3.71186 c -0.70794,-0.70794 -0.67873,-2.07794 0.0683,-3.20202 0.71433,-1.0749 2.80569,-2.23932 3.22683,-1.79662 0.19527,0.20527 0.12194,0.38027 -0.24902,0.59427 -1.72265,0.9938 -3.02911,2.99826 -2.26285,3.47183 0.59998,0.37081 5.71228,-2.75107 6.33882,-3.87086 0.75279,-1.34545 -0.56096,-1.89329 -5.33968,-2.22668 -1.94039,-0.13538 -2.36428,-0.247 -2.59829,-0.68425 -0.23416,-0.43753 -0.13189,-0.66181 0.62909,-1.3795 1.45843,-1.37548 4.50902,-2.85904 5.67957,-2.76209 0.8529,0.0706 1.0009,0.18034 1.07181,0.79444 0.0649,0.56232 -0.0814,0.79708 -0.69406,1.11393 -0.84265,0.43574 -1.108,0.33629 -1.108,-0.4153 0,-0.79241 -1.09235,-0.58328 -2.64878,0.50712 -0.77893,0.5457 -1.39737,1.11125 -1.3743,1.25677 0.0231,0.14552 1.08653,0.35157 2.36324,0.45789 1.27672,0.10632 2.82326,0.38251 3.43677,0.61376 0.61351,0.23124 1.44695,0.38238 1.85209,0.33586 0.6832,-0.0785 0.74256,-0.18051 0.81863,-1.40751 0.095,-1.53283 0.37646,-1.95304 0.97519,-1.45613 0.31583,0.26211 0.37755,0.61809 0.25214,1.45433 -0.16604,1.10726 -0.16604,1.10726 0.9821,1.37228 1.14109,0.2634 1.11357,0.31235 -0.43937,0.78146 -0.74387,0.2247 -0.79866,0.33238 -0.87184,1.71359 -0.0971,1.83336 0.35917,2.39769 1.39167,1.72117 0.52097,-0.34135 0.6429,-0.62388 0.59664,-1.38249 -0.11195,-1.83606 2.20184,-2.64146 2.93921,-1.0231 0.75397,1.65477 -0.0578,2.85292 -1.85115,2.73214 -0.59483,-0.0401 -1.17665,0.14436 -1.71786,0.54449 -1.54308,1.14085 -2.56754,0.15833 -2.31936,-2.2244 0.14279,-1.37098 -0.14092,-2.18578 -0.65127,-1.87037 -0.16179,0.1 -0.29416,0.4275 -0.29416,0.72778 0,0.61882 -2.93397,3.9115 -3.85028,4.32104 -0.32984,0.14742 -0.81886,0.45798 -1.0867,0.69014 -0.45409,0.39359 -2.00191,1.0262 -2.51084,1.0262 -0.1238,0 -0.46323,-0.23813 -0.75427,-0.52917 z m 14.29043,-3.97422 c 0.28876,-0.53956 0.15994,-1.05286 -0.26423,-1.05286 -0.36454,0 -1.06161,0.79419 -1.06161,1.20952 0,0.57104 0.9996,0.45293 1.32584,-0.15666 z m -53.37691,1.92774 c -0.201553,-0.52524 -0.231295,-2.23794 -0.137911,-7.94154 0.05577,-3.40651 0.128754,-4.0349 0.46861,-4.0349 0.809398,0 1.034723,1.17972 0.70226,3.6768 -0.171082,1.28497 -0.311058,2.79583 -0.311058,3.35747 v 1.02116 l 0.802814,-0.87896 c 0.748299,-0.81929 0.842623,-0.85264 1.389063,-0.49122 0.471945,0.31216 0.601877,0.68368 0.666409,1.90553 0.0727,1.37657 0.130032,1.50474 0.616212,1.3776 0.399484,-0.10447 0.497022,-0.0385 0.38286,0.25903 -0.08425,0.21956 -0.153191,0.50434 -0.153191,0.63284 0,0.1285 -0.245737,0.36515 -0.546079,0.52589 -0.901372,0.4824 -1.306005,-0.10427 -1.306005,-1.89353 0,-0.91068 -0.115236,-1.55511 -0.278084,-1.55511 -0.404011,0 -1.044832,1.68541 -1.044832,2.74799 0,0.5021 -0.07227,1.10123 -0.160599,1.33142 -0.213967,0.55758 -0.870321,0.53323 -1.090469,-0.0405 z m 25.857317,-0.20248 c -0.483558,-0.58265 0.124613,-1.23583 0.956315,-1.02709 0.445101,0.11171 0.631185,0.0467 0.631185,-0.22048 0,-0.21787 -0.421661,-0.48306 -0.992188,-0.62399 -1.349832,-0.33345 -1.384715,-1.28242 -0.07947,-2.16202 1.054965,-0.71094 1.733116,-0.68416 1.733116,0.0685 0,0.40157 -0.206631,0.54538 -0.875956,0.60965 -1.069578,0.10269 -0.992735,0.63044 0.125085,0.85905 1.67409,0.34239 1.886042,1.12474 0.598278,2.20832 -0.920633,0.77466 -1.613527,0.86989 -2.096365,0.2881 z m 4.129213,0.0533 c -0.395889,-0.28948 -0.432487,-0.6116 -0.271429,-2.38893 0.152819,-1.68642 0.262349,-2.03957 0.611579,-1.97192 0.32485,0.0629 0.43328,0.42987 0.45863,1.55205 0.0183,0.80829 0.11025,1.71237 0.20441,2.00905 0.23788,0.74947 -0.38877,1.24903 -1.00319,0.79975 z m 30.10373,-0.30054 c -0.87307,-0.38001 -1.3858,-1.41612 -1.21859,-2.46251 0.13009,-0.81404 1.55751,-2.18506 2.27496,-2.18506 1.79927,0 1.46496,2.32603 -0.43046,2.99498 -0.65065,0.22963 -0.58556,0.97377 0.0852,0.97377 0.30151,0 1.07541,-0.30897 1.71979,-0.6866 0.64438,-0.37763 1.17159,-0.58271 1.17159,-0.45575 0,0.52183 -0.91937,1.48642 -1.74587,1.83176 -1.03695,0.43326 -0.83419,0.43442 -1.8566,-0.0106 z M 91.96038,145.3281 c -0.464306,-0.46431 -0.420835,-3.12208 0.05107,-3.12208 0.42659,0 0.689766,0.56348 0.689766,1.47684 0,0.35191 0.106325,0.63982 0.236275,0.63982 0.348671,0 0.557475,-0.70181 0.557475,-1.87372 0,-0.70973 0.116242,-1.03669 0.368567,-1.03669 0.460229,0 0.689766,0.57536 0.689766,1.72898 0,0.49057 0.138404,1.19571 0.307562,1.56698 0.392623,0.86171 0.204367,1.03872 -0.677423,0.63695 -0.537612,-0.24495 -0.775774,-0.24728 -1.01315,-0.01 -0.396661,0.39666 -0.808511,0.39422 -1.209906,-0.007 z m 10.795,-0.21167 c -0.77331,-0.7733 -0.72774,-2.63162 0.0832,-3.39346 0.68672,-0.64514 1.24478,-0.72898 1.71597,-0.25779 0.48397,0.48398 0.37902,1.00542 -0.20236,1.00542 -0.75924,0 -1.1993,0.95579 -0.82167,1.78461 0.25733,0.56477 0.42069,0.63529 1.13898,0.49163 0.46121,-0.0922 1.09009,-0.40401 1.39751,-0.69281 0.66304,-0.6229 1.23335,-0.69102 1.01469,-0.12121 -0.22333,0.58199 -2.26521,1.71278 -3.0928,1.71278 -0.38739,0 -0.94248,-0.23812 -1.23352,-0.52917 z m 23.41149,-0.19843 c -0.0806,-0.40019 -0.26144,-1.09325 -0.40192,-1.54014 -0.36742,-1.16889 -0.32319,-1.51905 0.16805,-1.33055 0.26923,0.10332 0.61349,-0.0791 0.94524,-0.50086 0.53459,-0.67961 1.37877,-0.87648 1.67854,-0.39144 0.0924,0.14955 -0.1982,0.61403 -0.64584,1.03219 -0.70298,0.65668 -0.81389,0.94414 -0.81389,2.10935 0,1.01505 -0.097,1.34905 -0.39184,1.34905 -0.21555,0 -0.45775,-0.32735 -0.53834,-0.7276 z m -26.06663,-4.97215 c -0.449872,-0.54207 0.0277,-1.02862 0.77642,-0.79099 0.70576,0.22399 0.75376,1.19907 0.059,1.19907 -0.27322,0 -0.64917,-0.18364 -0.83545,-0.40808 z"
       id="path459"
       inkscape:export-filename="C:\Users\jaine\OneDrive\Escritorio\Joel\proyectos_git\grupo_2_instrumentosMusicalesDH\public\images\logo.svg"
       inkscape:export-xdpi="193.25876"
       inkscape:export-ydpi="193.25876" />
  </g>
</svg>
