<?xml version="1.0" encoding="UTF-8" standalone="no"?>
<!-- Created with Inkscape (http://www.inkscape.org/) -->

<svg
   width="78.858002mm"
   height="40.728489mm"
   viewBox="0 0 78.858002 40.728489"
   version="1.1"
   id="svg5"
   inkscape:version="1.1.2 (b8e25be833, 2022-02-05)"
   xmlns:inkscape="http://www.inkscape.org/namespaces/inkscape"
   xmlns:sodipodi="http://sodipodi.sourceforge.net/DTD/sodipodi-0.dtd"
   xmlns="http://www.w3.org/2000/svg"
   xmlns:svg="http://www.w3.org/2000/svg">
  <sodipodi:namedview
     id="namedview7"
     pagecolor="#ffffff"
     bordercolor="#666666"
     borderopacity="1.0"
     inkscape:pageshadow="2"
     inkscape:pageopacity="0.0"
     inkscape:pagecheckerboard="0"
     inkscape:document-units="mm"
     showgrid="false"
     inkscape:zoom="0.74029882"
     inkscape:cx="-200.59467"
     inkscape:cy="222.88297"
     inkscape:window-width="1920"
     inkscape:window-height="1017"
     inkscape:window-x="-8"
     inkscape:window-y="-8"
     inkscape:window-maximized="1"
     inkscape:current-layer="layer1"
     fit-margin-top="0"
     fit-margin-left="0"
     fit-margin-right="0"
     fit-margin-bottom="0" />
  <defs
     id="defs2" />
  <g
     inkscape:label="Layer 1"
     inkscape:groupmode="layer"
     id="layer1"
     transform="translate(-55.250518,-133.87164)">
    <path
       style="fill:#0044aa;stroke:#0044aa;stroke-width:0.106972"
       d="m 58.292132,151.47641 c 0.622603,-0.44269 1.920161,-1.00797 2.875719,-1.25281 2.062811,-0.52855 3.873197,-0.19739 8.527681,1.55989 2.095566,0.79117 3.124502,1.01655 4.295449,0.94088 1.619291,-0.10465 2.397123,-0.51758 4.429132,-2.35133 0.751081,-0.67779 1.648738,-1.4131 1.994795,-1.634 2.324118,-1.48362 5.361562,-1.40983 7.476159,0.1816 2.054179,1.54597 2.422808,3.29996 1.171645,5.57485 -0.76748,1.39546 -0.919106,1.62554 -0.996963,1.51281 -0.07987,-0.11564 -0.03068,-0.45194 0.26183,-1.7902 0.402794,-1.84279 0.200415,-2.83608 -0.783318,-3.84457 -0.987161,-1.01201 -2.505735,-1.53624 -3.908971,-1.34942 -1.301851,0.17333 -2.204008,0.68339 -3.999458,2.26121 -1.871721,1.64485 -2.901037,2.27397 -4.355768,2.66225 -0.388496,0.1037 -0.704312,0.21265 -0.701813,0.24211 0.0025,0.0295 0.288618,0.0966 0.63582,0.14911 0.347202,0.0525 1.106554,0.19977 1.687448,0.32717 2.09578,0.45965 3.216216,0.34921 4.452363,-0.43887 0.365177,-0.23281 0.913754,-0.58051 1.21906,-0.77266 1.105568,-0.69582 2.31817,-0.72129 3.187628,-0.0669 0.674359,0.50752 0.934741,1.18162 0.738612,1.9122 -0.09517,0.35451 -0.907518,1.39171 -1.022307,1.30528 -0.04266,-0.0321 0.01286,-0.35659 0.123375,-0.72104 0.246288,-0.8122 0.159044,-1.21378 -0.350779,-1.61462 -0.707583,-0.55633 -1.490381,-0.43026 -2.639607,0.42509 -1.882192,1.40089 -3.524777,1.69345 -6.264693,1.11579 -1.398057,-0.29476 -3.043279,-0.346 -3.580645,-0.11154 -0.519623,0.22672 -0.92634,0.67571 -1.201231,1.32606 -0.130487,0.30871 -0.281767,0.56417 -0.336177,0.56768 -0.05441,0.004 -0.12425,-0.21644 -0.155199,-0.4888 -0.129212,-1.13711 0.62899,-2.29971 1.719333,-2.63636 0.297611,-0.0919 0.557801,-0.18397 0.578201,-0.20462 0.0204,-0.0207 -0.16171,-0.0601 -0.40469,-0.0877 -1.027552,-0.11663 -2.409378,-0.48575 -3.797712,-1.01449 -4.539342,-1.72876 -5.987847,-1.98468 -7.762323,-1.37142 -1.20214,0.41546 -1.892821,0.84182 -2.500889,1.54382 -0.449616,0.51908 -0.556317,0.74117 -0.865106,1.8007 -0.436516,1.49779 -0.598574,3.00309 -0.525439,4.88062 0.08878,2.27923 0.435028,4.01015 1.282078,6.40927 0.957274,2.71131 2.267107,4.47628 4.086509,5.50649 1.91274,1.08306 3.701949,1.21212 5.383516,0.38832 0.555227,-0.272 0.787932,-0.4776 2.640128,-2.33257 1.899329,-1.90217 2.072474,-2.05397 2.666305,-2.33755 0.891696,-0.42582 1.650172,-0.63464 2.625468,-0.72281 1.819061,-0.16444 3.421328,0.13991 7.054023,1.33995 2.701097,0.89229 3.966635,1.16461 5.078389,1.09276 1.780606,-0.11507 3.012698,-1.14517 2.87197,-2.40112 -0.11478,-1.02436 -0.861803,-1.43441 -2.956356,-1.62277 -1.524649,-0.1371 -2.090771,-0.30137 -2.750995,-0.79825 -0.686079,-0.51635 -0.906098,-1.18478 -0.665999,-2.02336 0.103138,-0.36023 0.498794,-1.00565 0.579328,-0.94504 0.02769,0.0208 0.003,0.32603 -0.05482,0.6782 -0.127772,0.77793 0.04597,1.22329 0.591957,1.51744 0.511387,0.2755 0.868114,0.34358 2.214061,0.42253 2.5904,0.15194 3.829545,0.78879 4.242121,2.18019 0.568087,1.91587 -1.356709,3.77257 -4.068332,3.92439 -1.282292,0.0718 -2.546917,-0.1919 -5.477339,-1.14215 -4.070598,-1.31997 -5.725915,-1.50254 -7.567288,-0.8346 -0.978446,0.35493 -1.468282,0.7418 -2.666419,2.10594 -1.629634,1.85543 -2.639926,2.83109 -3.336662,3.22229 -1.973723,1.1082 -3.993278,1.19679 -6.413748,0.28135 -0.71332,-0.26979 -1.001938,-0.44536 -2.124743,-1.29257 -1.13471,-0.8562 -1.348814,-1.05627 -1.690199,-1.57949 -0.857805,-1.31472 -1.352131,-2.59446 -2.072278,-5.36483 -0.195032,-0.75029 -0.373799,-1.3786 -0.397262,-1.39626 -0.02347,-0.0177 -0.108758,0.0348 -0.189547,0.11663 -0.407505,0.41261 -1.084741,-0.22989 -1.093092,-1.03702 -0.0058,-0.56031 0.389744,-1.00524 0.691651,-0.77802 0.103927,0.0782 0.125443,0.19908 0.05424,0.30474 -0.12086,0.17937 -0.143569,0.74971 -0.03316,0.8328 0.119976,0.0903 0.454349,-0.19308 0.43443,-0.36817 -0.01113,-0.0978 -0.09342,-0.6455 -0.182857,-1.21706 -0.234013,-1.49544 -0.401099,-3.71466 -0.363915,-4.8335 0.09717,-2.9238 0.836915,-4.73124 2.387675,-5.83389 z m 6.829492,6.08003 c 0.951837,-0.26776 1.774855,0.27634 1.855447,1.22664 0.04351,0.51297 -0.03645,0.76274 -0.20385,0.63676 -0.04488,-0.0338 -0.07233,-0.1122 -0.06101,-0.17429 0.01132,-0.0621 -0.09786,-0.26525 -0.242655,-0.45148 -0.297611,-0.3828 -0.688997,-0.52106 -0.89231,-0.3152 -0.110665,0.11205 -0.09678,0.12211 0.161211,0.11669 0.347976,-0.007 0.638982,0.19897 0.6336,0.44913 -0.0064,0.29826 -0.369796,0.50066 -0.740661,0.41253 -0.185183,-0.044 -0.36257,-0.0538 -0.39419,-0.0218 -0.03163,0.032 0.113048,0.65726 0.321487,1.38942 0.208439,0.73216 0.428997,1.697 0.490128,2.14407 0.16248,1.18827 0.276768,1.78842 0.351246,1.84447 0.03618,0.0272 0.21244,-0.0331 0.391707,-0.13408 0.268156,-0.15102 0.378974,-0.15087 0.625063,8.5e-4 0.370871,0.22866 0.335997,0.58816 -0.07031,0.72487 -0.312682,0.10521 -0.317814,0.24073 -0.0093,0.24579 0.275597,0.005 0.409406,-0.21809 0.510279,-0.8489 0.03979,-0.24888 0.110853,-0.45499 0.157899,-0.45803 0.175664,-0.0114 0.449012,0.80069 0.398489,1.1838 -0.157155,1.19168 -1.713318,1.50923 -2.724632,0.55597 -0.490166,-0.46202 -0.630126,-1.08054 -0.505152,-2.2324 0.15477,-1.42649 0.110189,-1.62682 -0.697834,-3.13586 -0.238846,-0.44606 -0.480992,-0.97732 -0.538101,-1.18058 -0.219692,-0.78191 0.356943,-1.74586 1.18346,-1.97837 z m -4.372225,8.04762 c 0.797693,-0.28577 1.695189,0.003 1.99197,0.64117 0.375336,0.80694 -0.141059,1.7576 -1.02204,1.88154 -0.240257,0.0338 -0.533035,0.0203 -0.650621,-0.03 -0.27604,-0.11811 -0.190582,-0.20257 0.157466,-0.15564 0.42687,0.0576 0.792343,-0.16186 0.943805,-0.56663 0.233519,-0.62405 -0.279564,-1.21576 -0.954494,-1.10075 -0.475538,0.081 -0.737171,0.34183 -0.706443,0.70418 0.0343,0.40448 -0.103734,0.49625 -0.330222,0.21956 -0.449934,-0.54968 -0.171362,-1.32764 0.570575,-1.59343 z m 7.991097,-7.18157 c 0.350647,-0.0776 0.59164,0.0737 0.784323,0.4923 0.159479,0.34649 0.153722,0.92171 -0.01089,1.08838 -0.101194,0.10247 -0.117963,0.0901 -0.153038,-0.1129 -0.02167,-0.12539 -0.07327,-0.29699 -0.114685,-0.38134 -0.08009,-0.16314 -0.02925,0.23107 0.133398,1.03438 0.448294,2.21408 0.471196,2.27774 0.894557,2.48646 0.249869,0.12318 0.31514,0.24327 0.38073,0.70048 0.09488,0.66132 -0.05411,0.98271 -0.476803,1.0286 -0.335843,0.0365 -0.665118,-0.16718 -0.823911,-0.50955 -0.132968,-0.28669 -0.219697,-0.95373 -0.135138,-1.03935 0.08147,-0.0825 0.153336,-0.73129 0.133667,-1.20678 -0.02011,-0.48622 -0.266316,-1.23834 -0.450824,-1.3772 -0.08111,-0.061 -0.282054,-0.39206 -0.446531,-0.73559 -0.218952,-0.45731 -0.268678,-0.72098 -0.18566,-0.98444 0.137517,-0.4364 0.104367,-0.40236 0.470811,-0.48345 z m 3.513099,-0.0491 c 1.935147,-0.38328 2.058133,-0.30498 2.388387,1.52051 0.132476,0.73227 0.22886,1.39863 0.214187,1.48081 -0.01467,0.0822 0.02992,0.19201 0.09908,0.24407 0.06916,0.0521 0.0937,0.12712 0.05451,0.1668 -0.03919,0.0397 0.0034,0.22044 0.09459,0.40168 0.173855,0.34549 0.143463,1.04098 -0.05423,1.24116 -0.273064,0.27648 -2.877419,0.6662 -3.277973,0.49052 -0.271863,-0.11924 -0.492675,-0.52894 -0.566398,-1.05091 -0.02696,-0.19091 -0.09261,-0.60659 -0.145875,-0.92374 -0.201038,-1.19694 -0.246499,-1.66809 -0.177124,-1.83569 0.1074,-0.25946 0.363627,-0.16937 0.352758,0.12403 -0.0053,0.14107 0.09431,0.56464 0.221181,0.94129 0.126876,0.37664 0.239444,0.76695 0.250156,0.86735 0.02539,0.23802 0.06895,0.26365 0.208288,0.12256 0.06297,-0.0638 0.06937,-0.18924 0.01423,-0.27886 -0.105914,-0.17214 -0.21002,-1.05353 -0.133579,-1.13093 0.106915,-0.10825 0.318752,0.37698 0.355923,0.81528 0.02227,0.26249 0.07819,0.50565 0.124299,0.54034 0.123577,0.093 -0.178743,0.36115 -0.345419,0.30638 -0.107813,-0.0354 -0.140671,-0.006 -0.134519,0.1209 0.0064,0.13117 0.0834,0.16291 0.353008,0.14549 0.310113,-0.02 0.346718,-4.7e-4 0.363226,0.19419 0.02549,0.30064 0.09771,0.33372 0.717739,0.32883 0.850606,-0.007 1.004334,-0.0913 1.010722,-0.55613 0.003,-0.21821 0.03652,-0.4282 0.07448,-0.46664 0.03796,-0.0384 0.01049,-0.11395 -0.06105,-0.16779 -0.07155,-0.0538 -0.08947,-0.13901 -0.03983,-0.18926 0.131787,-0.13344 -0.158187,-2.86293 -0.316834,-2.98233 -0.242895,-0.1828 -0.582924,-0.19346 -1.671244,-0.0524 -0.815324,0.10568 -1.106849,0.18897 -1.210328,0.34578 -0.150172,0.22757 -0.243362,0.2104 -0.265352,-0.0489 -0.02718,-0.32041 0.30077,-0.47629 1.502998,-0.7144 z m -9.700445,9.87696 c 1.488848,-0.511 2.704786,1.11321 1.640284,2.19104 -0.368237,0.37285 -0.901044,0.52846 -1.269569,0.37078 -0.273748,-0.11712 -0.189474,-0.20396 0.206002,-0.21227 0.441019,-0.009 0.75119,-0.36744 0.695161,-0.80275 -0.05866,-0.45572 -0.354735,-0.67844 -0.858583,-0.6459 -0.502046,0.0324 -0.645786,0.17968 -0.590993,0.60536 0.05783,0.44932 0.0062,0.47807 -0.361597,0.20128 -0.227204,-0.17099 -0.319522,-0.34365 -0.345117,-0.64547 -0.04156,-0.49014 0.254736,-0.84596 0.884441,-1.06208 z m 10.837441,-8.99629 c 0.121105,0.0921 0.299756,0.72753 0.383794,1.36517 0.04608,0.34967 0.118763,0.80989 0.161508,1.02271 0.04274,0.21282 0.0353,0.4299 -0.01656,0.4824 -0.05185,0.0525 -0.05246,0.12692 -0.0013,0.16537 0.189649,0.14273 0.141448,0.52009 -0.07377,0.57749 -0.359588,0.0959 -0.476742,-0.0298 -0.292773,-0.31415 0.122371,-0.18915 0.126888,-0.31173 0.01459,-0.39624 -0.08942,-0.0673 -0.112127,-0.17347 -0.05045,-0.23592 0.06168,-0.0625 0.07881,-0.13862 0.03809,-0.16927 -0.08784,-0.0661 -0.167441,-0.52844 -0.278182,-1.61571 -0.07567,-0.74296 -0.04196,-1.00125 0.115099,-0.88185 z m -5.078326,7.26239 c 0.709199,-0.52265 1.203418,-0.80845 1.392625,-0.80535 0.182977,0.003 0.155352,0.0643 -0.18525,0.41123 -0.793492,0.80817 -1.37289,2.1656 -1.144818,2.68213 0.302355,0.68475 0.862966,0.48765 1.667453,-0.58626 1.163413,-1.55303 1.882667,-2.08909 3.262201,-2.43134 1.102729,-0.27358 3.469891,-0.38738 5.184214,-0.24923 2.346432,0.18909 3.16296,0.41371 7.604752,2.09201 1.212913,0.45828 1.969677,0.57683 2.649295,0.415 0.533717,-0.12709 0.720693,-0.2928 0.693406,-0.61456 -0.03467,-0.4087 -0.814191,-0.79094 -2.260729,-1.10853 -1.661502,-0.36478 -2.418571,-0.68984 -2.900326,-1.2453 -0.490476,-0.56551 -0.805598,-1.33757 -0.832299,-2.03914 -0.0318,-0.83553 0.191953,-0.99222 0.314348,-0.22012 0.05293,0.3339 0.245094,0.84533 0.427033,1.13651 0.508208,0.81337 0.98898,1.06692 2.860528,1.50861 2.428334,0.57308 3.235408,1.0617 3.315604,2.00732 0.0697,0.82192 -0.726679,1.38872 -2.000654,1.42389 -0.992909,0.0274 -1.514455,-0.10746 -3.440946,-0.88976 -3.197448,-1.29842 -4.567265,-1.58981 -7.663118,-1.63013 -1.742389,-0.0227 -3.144655,0.12324 -3.933435,0.40936 -0.705709,0.25599 -1.237858,0.75918 -2.02457,1.91441 -0.662525,0.97287 -1.240227,1.46504 -1.977842,1.68502 -0.596466,0.17788 -1.367557,0.086 -1.760552,-0.20975 -0.559258,-0.4209 -0.736772,-1.23665 -0.446423,-2.05148 0.168001,-0.47148 0.788748,-1.30184 1.199503,-1.60454 z m 17.276396,-16.68976 c 1.655484,-0.10699 2.076383,1.94359 0.51159,2.49242 -0.37178,0.1304 -1.041757,-0.0466 -1.240007,-0.32768 -0.193083,-0.2737 -0.177781,-0.84804 0.02294,-0.86101 0.123558,-0.008 0.166791,0.025 0.150397,0.11493 -0.0335,0.18364 0.343413,0.434 0.597281,0.39674 0.256837,-0.0377 0.485111,-0.3879 0.45837,-0.70321 -0.04803,-0.56629 -0.897605,-0.63982 -1.282309,-0.11098 -0.103922,0.14286 -0.234698,0.25338 -0.290614,0.24561 -0.204149,-0.0284 -0.03032,-0.56651 0.28668,-0.88747 0.258211,-0.26145 0.420708,-0.33577 0.785674,-0.35936 z m -20.245729,20.22839 c 0.551267,-0.16585 1.404971,0.25501 1.576497,0.77718 0.209469,0.63769 -0.190611,1.24939 -0.870229,1.33054 l -0.424606,0.0507 0.392515,-0.30735 c 0.451737,-0.35373 0.497608,-0.67228 0.135995,-0.94442 -0.517081,-0.38916 -1.126643,-0.17091 -1.032304,0.3696 0.02433,0.13941 -0.0032,0.26656 -0.06121,0.28254 -0.206869,0.057 -0.450443,-0.23582 -0.47931,-0.57621 -0.03153,-0.37182 0.345003,-0.85694 0.762657,-0.98258 z M 80.147215,157.2031 c 0.546104,-0.12813 1.209842,-0.23956 1.474974,-0.24762 0.43816,-0.0133 0.516332,0.0189 0.858444,0.3544 0.207011,0.20298 0.442499,0.48876 0.523304,0.63506 0.347266,0.62873 0.609686,3.0018 0.413505,3.73933 -0.130907,0.49214 -0.153532,0.52067 -0.522464,0.65874 -0.497342,0.18612 -2.264639,0.44339 -2.700352,0.3931 -0.312642,-0.0361 -0.354904,-0.0701 -0.599648,-0.48181 -0.144815,-0.24364 -0.251449,-0.59736 -0.236961,-0.78605 0.01449,-0.18869 -0.0022,-0.36452 -0.03699,-0.39073 -0.03483,-0.0262 -0.09301,-0.29269 -0.129287,-0.59216 -0.03628,-0.29947 -0.103386,-0.7935 -0.149129,-1.09783 -0.06356,-0.42282 -0.03417,-0.57968 0.124586,-0.66502 0.26659,-0.14331 0.502472,0.0285 0.308619,0.22476 -0.09115,0.0923 -0.08743,0.27878 0.0097,0.4876 0.08653,0.18598 0.156304,0.37363 0.15505,0.41699 -0.0035,0.12229 0.21219,0.83409 0.26479,0.87367 0.02578,0.0194 0.09734,-0.0158 0.159011,-0.0783 0.06168,-0.0624 0.08021,-0.13758 0.04118,-0.16695 -0.09225,-0.0694 -0.236279,-1.01307 -0.165558,-1.08468 0.121816,-0.12334 0.248874,0.12163 0.394307,0.76024 0.08451,0.37111 0.111169,0.71777 0.05923,0.77036 -0.05194,0.0526 -0.04672,0.13341 0.01158,0.17961 0.05831,0.0462 0.131752,0.18868 0.163207,0.31665 0.04802,0.19532 0.02014,0.2381 -0.173705,0.26655 -0.175961,0.0258 -0.227578,0.073 -0.216945,0.19839 0.01063,0.12536 0.244364,0.1508 0.982387,0.10693 0.532641,-0.0317 1.065423,-0.11695 1.183958,-0.18953 0.178325,-0.10917 0.186758,-0.47293 0.04886,-2.10761 -0.09167,-1.08662 -0.231397,-2.02438 -0.310514,-2.08393 -0.252683,-0.19016 -0.581542,-0.20187 -1.678213,-0.0597 -0.855191,0.11085 -1.096903,0.18278 -1.196651,0.35608 -0.135613,0.23561 -0.258597,0.20987 -0.28139,-0.0589 -0.0246,-0.29009 0.196216,-0.40721 1.221088,-0.64766 z m 1.507362,0.95396 c 0.145714,0.20306 0.333819,1.18448 0.482084,2.51526 0.06535,0.58657 0.04064,0.74501 -0.119839,0.76856 -0.16673,0.0245 -0.210258,-0.0488 -0.248352,-0.41793 -0.0254,-0.24617 -0.09694,-0.69363 -0.158978,-0.99435 -0.161287,-0.78185 -0.258228,-1.90882 -0.171729,-1.99641 0.04197,-0.0425 0.135286,0.0113 0.216814,0.12487 z m 3.265864,-0.99528 c 0.452125,-0.0874 1.88875,-0.2489 3.192498,-0.35886 7.811441,-0.65884 14.643871,-1.52555 21.828391,-2.769 5.74387,-0.99411 7.69856,-1.23584 8.28337,-1.02437 0.21236,0.0768 0.41596,0.1094 0.45245,0.0725 0.0365,-0.0369 0.1791,-0.0451 0.31693,-0.0182 0.21263,0.0415 0.2224,0.0632 0.0645,0.14288 -0.10238,0.0517 -0.26305,0.0954 -0.35712,0.0972 -0.0941,0.002 -0.98113,0.13469 -1.97124,0.29535 -1.82821,0.29665 -3.64977,0.53576 -4.92988,0.64713 -1.13503,0.0987 -4.13534,0.52307 -5.90419,0.83501 -3.5091,0.61883 -9.634152,1.51128 -13.057868,1.90259 -1.037197,0.11854 -2.336551,0.26893 -2.887454,0.33419 -0.550903,0.0653 -1.728978,0.12159 -2.617945,0.12518 -0.888968,0.004 -1.977712,0.009 -2.41943,0.0124 -0.441718,0.003 -0.805813,-0.0258 -0.809097,-0.0646 -0.0033,-0.0387 0.363948,-0.14196 0.816076,-0.22937 z m 0.345309,3.6223 c 0.643306,-0.14604 1.504963,-0.35442 3.098495,-0.74933 1.247663,-0.30919 3.681616,-0.73711 6.683822,-1.17508 2.267846,-0.33084 5.400983,-0.86517 10.649723,-1.81623 1.04929,-0.19012 3.40807,-0.58239 5.24174,-0.8717 1.83366,-0.28931 4.17095,-0.67532 5.19395,-0.85781 1.65361,-0.29497 2.34355,-0.34561 2.15872,-0.15846 -0.15761,0.15958 -3.52733,0.79755 -7.44409,1.40934 -3.79971,0.5935 -5.58694,0.90603 -9.03495,1.57992 -1.53114,0.29925 -4.48068,0.84074 -6.55454,1.20331 -2.073846,0.36258 -4.30558,0.76138 -4.959403,0.88624 -4.13027,0.78874 -6.050308,1.03884 -5.717297,0.74473 0.03328,-0.0294 0.341001,-0.11711 0.68383,-0.19493 z m 35.84613,-11.40186 c 0.34823,0.068 0.42675,0.14912 0.45387,0.46889 0.0245,0.28935 -0.31855,0.74069 -0.53966,0.70995 -0.068,-0.009 -0.11041,-0.13331 -0.094,-0.27522 0.0164,-0.1419 -0.0374,-0.26735 -0.11956,-0.27877 -0.20174,-0.0281 -0.25383,-0.36078 -0.0835,-0.53326 0.0758,-0.0767 0.24804,-0.11792 0.38285,-0.0916 z m -1.56756,1.95902 c 1.01875,-0.59545 1.99248,-0.5394 4.41527,0.25418 1.96783,0.64456 2.71417,0.81124 4.47711,0.99982 0.74296,0.0795 1.38478,0.17006 1.42628,0.20129 0.18484,0.13911 -0.15789,0.19438 -1.63168,0.26315 -1.8575,0.0867 -2.82349,-0.0432 -4.95382,-0.66603 -2.48932,-0.72777 -2.69777,-0.74323 -3.86507,-0.2866 -0.43631,0.17069 -0.78489,0.2642 -0.7746,0.2078 0.0467,-0.25645 0.48527,-0.72739 0.90651,-0.97361 z m -0.62724,2.11974 c 0.21916,0.0305 0.391,1.43121 0.19937,1.62523 -0.2158,0.2185 -0.42668,-0.16427 -0.38613,-0.70086 0.0232,-0.30691 -0.005,-0.59579 -0.0639,-0.64194 -0.12928,-0.10227 0.0548,-0.30966 0.25068,-0.28243 z m 4.10934,-3.64239 c 0.33437,0.14666 0.39502,0.39782 0.17997,0.74532 -0.2168,0.35032 -0.43141,0.40464 -0.47548,0.12034 -0.0186,-0.12012 -0.0997,-0.28945 -0.18023,-0.3763 -0.0961,-0.10366 -0.0861,-0.23533 0.0289,-0.38322 0.14217,-0.18284 0.22642,-0.20285 0.44692,-0.10614 z m 1.73812,0.49194 c 0.45629,-0.0295 0.58685,0.45249 0.2225,0.8214 -0.20148,0.20401 -0.23275,0.20682 -0.26793,0.0241 -0.0219,-0.11376 -0.12207,-0.27064 -0.22257,-0.34863 -0.21175,-0.16429 -0.0432,-0.47679 0.268,-0.4969 z m -4.78071,4.99061 c 0.1467,0.004 1.63118,0.6573 1.82581,0.80378 0.0123,0.009 0.23344,-0.0826 0.4915,-0.20405 0.66232,-0.31172 1.02975,-0.29518 2.2534,0.10147 0.59167,0.1918 1.18446,0.34169 1.31731,0.33311 0.15783,-0.0102 0.48872,-0.23168 0.95475,-0.63905 0.39227,-0.34289 0.82345,-0.65924 0.95818,-0.703 0.41724,-0.13552 1.25021,-0.12389 2.20165,0.0307 1.66439,0.27049 1.73557,0.2542 1.86461,-0.42668 0.0489,-0.25822 -0.0211,-0.5078 -0.23402,-0.83392 -0.16712,-0.25597 -0.27812,-0.49147 -0.24665,-0.52333 0.10954,-0.1109 0.70577,0.43765 0.92446,0.85053 0.32012,0.60436 0.23939,0.90315 -0.40567,1.50147 -0.53679,0.49789 -0.53679,0.49789 -1.45635,0.43406 -2.03859,-0.1415 -1.84381,-0.18896 -2.78944,0.67965 -0.78616,0.72212 -0.86563,0.771 -1.38838,0.85381 -0.71832,0.11381 -1.18241,0.0334 -2.15785,-0.37381 -0.7499,-0.31306 -0.82231,-0.32166 -1.2487,-0.1484 -0.87018,0.35359 -1.42784,0.15316 -2.33575,-0.83948 -0.70124,-0.76668 -0.78188,-0.90344 -0.52886,-0.89689 z m 6.51228,-4.74818 c 0.21561,-0.0139 0.52526,0.18887 0.5875,0.38478 0.0601,0.18908 -0.0652,0.58645 -0.24114,0.76454 -0.16037,0.16239 -0.33281,0.11673 -0.29716,-0.0787 0.0113,-0.0617 -0.11964,-0.1813 -0.29087,-0.26572 -0.21126,-0.10415 -0.30246,-0.206 -0.28366,-0.31677 0.0395,-0.23275 0.29858,-0.4735 0.52533,-0.48815 z m 2.01204,0.32059 c 0.16056,-0.0355 0.35003,-0.0209 0.42104,0.0325 0.2066,0.15549 0.20502,0.77169 -0.002,0.98183 -0.24148,0.2445 -0.35637,0.16033 -0.29893,-0.21898 0.0502,-0.33087 -0.066,-0.48298 -0.23671,-0.31011 -0.15568,0.15763 -0.29019,0.0294 -0.22714,-0.21653 0.0376,-0.14694 0.13412,-0.22225 0.34426,-0.26876 z m 1.76116,0.28235 c 0.17568,-0.0845 0.31049,-0.0633 0.49878,0.0784 0.30377,0.22863 0.2987,0.62954 -0.012,0.9441 -0.23182,0.23472 -0.36201,0.19643 -0.35553,-0.10459 0.003,-0.13293 -0.0497,-0.1968 -0.15646,-0.1899 -0.1861,0.012 -0.35138,-0.28536 -0.26891,-0.48387 0.0294,-0.0706 0.16169,-0.18054 0.29409,-0.24419 z"
       id="path791"
       inkscape:export-filename="C:\Users\jaine\OneDrive\Escritorio\Joel\proyectos_git\grupo_2_instrumentosMusicalesDH\public\images\logo.svg"
       inkscape:export-xdpi="193.25876"
       inkscape:export-ydpi="193.25876" />
    <path
       style="fill:#000000;stroke-width:0.264583"
       id="path95"
       d="" />
    <path
       style="fill:#000000;stroke-width:0.264583"
       id="path21"
       d="" />
    <path
       style="fill:#0044aa;stroke:#0044aa;stroke-width:0.264583"
       d="m 90.663732,148.75445 c -0.995545,-1.09301 -1.197322,-1.84286 -1.488147,-5.53031 -0.158932,-2.01518 -0.366993,-3.66396 -0.462354,-3.66396 -0.366794,0 -1.655923,2.17486 -2.23003,3.76223 -0.354263,0.97952 -0.776282,1.69685 -1.027951,1.74728 -0.375581,0.0752 -0.426953,-0.33329 -0.426953,-3.39549 0,-2.65033 -0.07821,-3.45496 -0.327744,-3.37178 -0.398323,0.13277 -0.797841,1.27159 -1.37381,3.91602 -0.457985,2.10274 -1.303101,3.82825 -1.742103,3.55693 -0.46014,-0.28438 -0.280557,-1.56105 0.533241,-3.79091 1.055581,-2.89236 1.11111,-5.30597 0.144317,-6.27276 -0.784209,-0.78421 -0.840637,-0.78751 -1.945638,-0.11381 -0.893246,0.5446 -1.886254,2.29009 -1.897035,3.33458 -0.01169,1.13316 -1.353043,1.52614 -1.953655,0.57238 -0.661548,-1.05053 1.738244,-4.38126 3.695171,-5.12862 1.105445,-0.42217 1.259546,-0.42431 2.088655,-0.0289 0.878248,0.4188 1.450105,1.56758 1.454208,2.9213 0.0013,0.43129 0.09242,0.41001 0.802392,-0.18739 1.401238,-1.17906 1.791594,-0.64536 1.909918,2.61127 l 0.06729,1.85208 0.888886,-1.63888 c 1.117901,-2.06112 1.754029,-2.67663 2.367748,-2.29101 0.363289,0.22826 0.477224,0.87364 0.605269,3.42846 0.292182,5.82988 1.006231,7.51289 3.187491,7.51289 1.042942,0 1.085545,0.0272 0.607946,0.38846 -0.830067,0.62783 -2.831835,0.51843 -3.477114,-0.19003 z m -30.021591,-0.57104 c -1.227438,-0.36531 -1.561055,-0.68573 -0.713982,-0.68573 1.181665,0 1.287639,-0.37377 1.287639,-4.54152 0,-3.61817 -0.03854,-3.92715 -0.522124,-4.18596 -0.635013,-0.33985 -2.148849,-0.39918 -3.589895,-0.14069 -0.848456,0.15218 -1.147242,0.0979 -1.446627,-0.26284 -0.333188,-0.40147 -0.308188,-0.51061 0.213756,-0.93326 0.81747,-0.66195 3.878167,-1.31281 6.173512,-1.31281 3.710965,0 6.511237,1.3405 7.132591,3.4144 0.373466,1.24651 -0.244251,3.67923 -1.154219,4.5456 -0.914486,0.87066 -4.217828,3.05412 -4.954911,3.27512 -0.363802,0.10907 -0.840052,0.40492 -1.058333,0.65743 -0.337022,0.38987 -0.543241,0.41555 -1.367407,0.17026 z m 4.968871,-3.86842 c 2.151843,-1.8319 2.748536,-2.68386 2.748536,-3.9244 0,-1.42384 -2.459359,-2.83891 -4.573814,-2.63168 -1.036332,0.10156 -1.151338,0.54782 -1.4096,5.46963 l -0.185548,3.53607 0.706004,-0.36992 c 0.388303,-0.20345 1.609792,-1.13932 2.714422,-2.0797 z m 43.758948,3.71186 c -0.70794,-0.70794 -0.67873,-2.07794 0.0683,-3.20202 0.71433,-1.0749 2.80569,-2.23932 3.22683,-1.79662 0.19527,0.20527 0.12194,0.38027 -0.24902,0.59427 -1.72265,0.9938 -3.02911,2.99826 -2.26285,3.47183 0.59998,0.37081 5.71228,-2.75107 6.33882,-3.87086 0.75279,-1.34545 -0.56096,-1.89329 -5.33968,-2.22668 -1.94039,-0.13538 -2.36428,-0.247 -2.59829,-0.68425 -0.23416,-0.43753 -0.13189,-0.66181 0.62909,-1.3795 1.45843,-1.37548 4.50902,-2.85904 5.67957,-2.76209 0.8529,0.0706 1.0009,0.18034 1.07181,0.79444 0.0649,0.56232 -0.0814,0.79708 -0.69406,1.11393 -0.84265,0.43574 -1.108,0.33629 -1.108,-0.4153 0,-0.79241 -1.09235,-0.58328 -2.64878,0.50712 -0.77893,0.5457 -1.39737,1.11125 -1.3743,1.25677 0.0231,0.14552 1.08653,0.35157 2.36324,0.45789 1.27672,0.10632 2.82326,0.38251 3.43677,0.61376 0.61351,0.23124 1.44695,0.38238 1.85209,0.33586 0.6832,-0.0785 0.74256,-0.18051 0.81863,-1.40751 0.095,-1.53283 0.37646,-1.95304 0.97519,-1.45613 0.31583,0.26211 0.37755,0.61809 0.25214,1.45433 -0.16604,1.10726 -0.16604,1.10726 0.9821,1.37228 1.14109,0.2634 1.11357,0.31235 -0.43937,0.78146 -0.74387,0.2247 -0.79866,0.33238 -0.87184,1.71359 -0.0971,1.83336 0.35917,2.39769 1.39167,1.72117 0.52097,-0.34135 0.6429,-0.62388 0.59664,-1.38249 -0.11195,-1.83606 2.20184,-2.64146 2.93921,-1.0231 0.75397,1.65477 -0.0578,2.85292 -1.85115,2.73214 -0.59483,-0.0401 -1.17665,0.14436 -1.71786,0.54449 -1.54308,1.14085 -2.56754,0.15833 -2.31936,-2.2244 0.14279,-1.37098 -0.14092,-2.18578 -0.65127,-1.87037 -0.16179,0.1 -0.29416,0.4275 -0.29416,0.72778 0,0.61882 -2.93397,3.9115 -3.85028,4.32104 -0.32984,0.14742 -0.81886,0.45798 -1.0867,0.69014 -0.45409,0.39359 -2.00191,1.0262 -2.51084,1.0262 -0.1238,0 -0.46323,-0.23813 -0.75427,-0.52917 z m 14.29043,-3.97422 c 0.28876,-0.53956 0.15994,-1.05286 -0.26423,-1.05286 -0.36454,0 -1.06161,0.79419 -1.06161,1.20952 0,0.57104 0.9996,0.45293 1.32584,-0.15666 z m -53.37691,1.92774 c -0.201553,-0.52524 -0.231295,-2.23794 -0.137911,-7.94154 0.05577,-3.40651 0.128754,-4.0349 0.46861,-4.0349 0.809398,0 1.034723,1.17972 0.70226,3.6768 -0.171082,1.28497 -0.311058,2.79583 -0.311058,3.35747 v 1.02116 l 0.802814,-0.87896 c 0.748299,-0.81929 0.842623,-0.85264 1.389063,-0.49122 0.471945,0.31216 0.601877,0.68368 0.666409,1.90553 0.0727,1.37657 0.130032,1.50474 0.616212,1.3776 0.399484,-0.10447 0.497022,-0.0385 0.38286,0.25903 -0.08425,0.21956 -0.153191,0.50434 -0.153191,0.63284 0,0.1285 -0.245737,0.36515 -0.546079,0.52589 -0.901372,0.4824 -1.306005,-0.10427 -1.306005,-1.89353 0,-0.91068 -0.115236,-1.55511 -0.278084,-1.55511 -0.404011,0 -1.044832,1.68541 -1.044832,2.74799 0,0.5021 -0.07227,1.10123 -0.160599,1.33142 -0.213967,0.55758 -0.870321,0.53323 -1.090469,-0.0405 z m 25.857317,-0.20248 c -0.483558,-0.58265 0.124613,-1.23583 0.956315,-1.02709 0.445101,0.11171 0.631185,0.0467 0.631185,-0.22048 0,-0.21787 -0.421661,-0.48306 -0.992188,-0.62399 -1.349832,-0.33345 -1.384715,-1.28242 -0.07947,-2.16202 1.054965,-0.71094 1.733116,-0.68416 1.733116,0.0685 0,0.40157 -0.206631,0.54538 -0.875956,0.60965 -1.069578,0.10269 -0.992735,0.63044 0.125085,0.85905 1.67409,0.34239 1.886042,1.12474 0.598278,2.20832 -0.920633,0.77466 -1.613527,0.86989 -2.096365,0.2881 z m 4.129213,0.0533 c -0.395889,-0.28948 -0.432487,-0.6116 -0.271429,-2.38893 0.152819,-1.68642 0.262349,-2.03957 0.611579,-1.97192 0.32485,0.0629 0.43328,0.42987 0.45863,1.55205 0.0183,0.80829 0.11025,1.71237 0.20441,2.00905 0.23788,0.74947 -0.38877,1.24903 -1.00319,0.79975 z m 30.10373,-0.30054 c -0.87307,-0.38001 -1.3858,-1.41612 -1.21859,-2.46251 0.13009,-0.81404 1.55751,-2.18506 2.27496,-2.18506 1.79927,0 1.46496,2.32603 -0.43046,2.99498 -0.65065,0.22963 -0.58556,0.97377 0.0852,0.97377 0.30151,0 1.07541,-0.30897 1.71979,-0.6866 0.64438,-0.37763 1.17159,-0.58271 1.17159,-0.45575 0,0.52183 -0.91937,1.48642 -1.74587,1.83176 -1.03695,0.43326 -0.83419,0.43442 -1.8566,-0.0106 z M 91.96038,145.3281 c -0.464306,-0.46431 -0.420835,-3.12208 0.05107,-3.12208 0.42659,0 0.689766,0.56348 0.689766,1.47684 0,0.35191 0.106325,0.63982 0.236275,0.63982 0.348671,0 0.557475,-0.70181 0.557475,-1.87372 0,-0.70973 0.116242,-1.03669 0.368567,-1.03669 0.460229,0 0.689766,0.57536 0.689766,1.72898 0,0.49057 0.138404,1.19571 0.307562,1.56698 0.392623,0.86171 0.204367,1.03872 -0.677423,0.63695 -0.537612,-0.24495 -0.775774,-0.24728 -1.01315,-0.01 -0.396661,0.39666 -0.808511,0.39422 -1.209906,-0.007 z m 10.795,-0.21167 c -0.77331,-0.7733 -0.72774,-2.63162 0.0832,-3.39346 0.68672,-0.64514 1.24478,-0.72898 1.71597,-0.25779 0.48397,0.48398 0.37902,1.00542 -0.20236,1.00542 -0.75924,0 -1.1993,0.95579 -0.82167,1.78461 0.25733,0.56477 0.42069,0.63529 1.13898,0.49163 0.46121,-0.0922 1.09009,-0.40401 1.39751,-0.69281 0.66304,-0.6229 1.23335,-0.69102 1.01469,-0.12121 -0.22333,0.58199 -2.26521,1.71278 -3.0928,1.71278 -0.38739,0 -0.94248,-0.23812 -1.23352,-0.52917 z m 23.41149,-0.19843 c -0.0806,-0.40019 -0.26144,-1.09325 -0.40192,-1.54014 -0.36742,-1.16889 -0.32319,-1.51905 0.16805,-1.33055 0.26923,0.10332 0.61349,-0.0791 0.94524,-0.50086 0.53459,-0.67961 1.37877,-0.87648 1.67854,-0.39144 0.0924,0.14955 -0.1982,0.61403 -0.64584,1.03219 -0.70298,0.65668 -0.81389,0.94414 -0.81389,2.10935 0,1.01505 -0.097,1.34905 -0.39184,1.34905 -0.21555,0 -0.45775,-0.32735 -0.53834,-0.7276 z m -26.06663,-4.97215 c -0.449872,-0.54207 0.0277,-1.02862 0.77642,-0.79099 0.70576,0.22399 0.75376,1.19907 0.059,1.19907 -0.27322,0 -0.64917,-0.18364 -0.83545,-0.40808 z"
       id="path459"
       inkscape:export-filename="C:\Users\jaine\OneDrive\Escritorio\Joel\proyectos_git\grupo_2_instrumentosMusicalesDH\public\images\logo.svg"
       inkscape:export-xdpi="193.25876"
       inkscape:export-ydpi="193.25876" />
  </g>
</svg>
